<?xml version="1.0" encoding="UTF-8" standalone="no"?>
<!DOCTYPE svg PUBLIC "-//W3C//DTD SVG 1.1//EN"
 "http://www.w3.org/Graphics/SVG/1.1/DTD/svg11.dtd">
<!-- Generated by graphviz version 2.43.0 (0)
 -->
<!-- Title: %3 Pages: 1 -->
<svg width="912pt" height="211pt"
 viewBox="0.00 0.00 912.00 211.00" xmlns="http://www.w3.org/2000/svg" xmlns:xlink="http://www.w3.org/1999/xlink">
<title>Pandemic Belief Systems, one-pager</title>
<g id="graph0" class="graph" transform="scale(1 1) rotate(0) translate(4 207)">
<title>%3</title>
<g id="a_graph0"><a xlink:title=" " target="details">
<polygon fill="white" stroke="transparent" points="-4,4 -4,-207 908,-207 908,4 -4,4"/>
</a>
</g>
<!-- PANBESY&#45;1 -->
<g id="PANBESY&#45;1" class="node">
<title>PANBESY&#45;1</title>
<g id="a_PANBESY&#45;1"><a xlink:href="https://knowhere.atlassian.net/browse/PANBESY-1" xlink:title=" " target="details">
<path fill="white" stroke="black" d="M586,-33C586,-33 399,-33 399,-33 393.5,-33 388,-27.5 388,-22 388,-22 388,-11 388,-11 388,-5.5 393.5,0 399,0 399,0 586,0 586,0 591.5,0 597,-5.5 597,-11 597,-11 597,-22 597,-22 597,-27.5 591.5,-33 586,-33"/>
<g id="a_PANBESY&#45;1_0"><a xlink:href="https://knowhere.atlassian.net/issues/?jql=type=10601+ORDER+BY+summary" xlink:title=" " target="details">
<image xlink:href="https://knowhere.atlassian.net/secure/viewavatar?size=small&amp;avatarId=10303&amp;avatarType=issuetype" width="18px" height="19px" preserveAspectRatio="xMinYMin meet" x="395.5" y="-26.5"/>
</a>
</g>
<text text-anchor="start" x="415.5" y="-13.3" font-family="Helvetica,sans-Serif" font-weight="bold" font-size="14.00">pandemic (in general)</text>
</a>
</g>
</g>
<!-- PANBESY&#45;4 -->
<g id="PANBESY&#45;4" class="node">
<title>PANBESY&#45;4</title>
<g id="a_PANBESY&#45;4"><a xlink:href="https://knowhere.atlassian.net/browse/PANBESY-4" xlink:title="a.k.a. “Corona Denier”" target="details">
<path fill="white" stroke="black" d="M684.5,-143C684.5,-143 452.5,-143 452.5,-143 447,-143 441.5,-137.5 441.5,-132 441.5,-132 441.5,-121 441.5,-121 441.5,-115.5 447,-110 452.5,-110 452.5,-110 684.5,-110 684.5,-110 690,-110 695.5,-115.5 695.5,-121 695.5,-121 695.5,-132 695.5,-132 695.5,-137.5 690,-143 684.5,-143"/>
<g id="a_PANBESY&#45;4_1"><a xlink:href="https://knowhere.atlassian.net/issues/?jql=type=10628+ORDER+BY+summary" xlink:title="a.k.a. “Corona Denier”" target="details">
<image xlink:href="https://knowhere.atlassian.net/secure/viewavatar?size=small&amp;avatarId=11491&amp;avatarType=issuetype" width="16px" height="12px" preserveAspectRatio="xMinYMin meet" x="449.5" y="-136.5"/>
</a>
</g>
<text text-anchor="start" x="469" y="-123.3" font-family="Helvetica,sans-Serif" font-weight="bold" font-size="14.00">Corona Conspiracy Believer</text>
</a>
</g>
</g>
<!-- PANBESY&#45;1&#45;&gt;PANBESY&#45;4 -->
<g id="PANBESY&#45;1___PANBESY&#45;4" class="edge">
<title>PANBESY&#45;1&#45;&gt;PANBESY&#45;4</title>
<g id="a_PANBESY&#45;1___PANBESY&#45;4"><a xlink:href="https://knowhere.atlassian.net/issues/?jql=key+in+(PANBESY-4,PANBESY-1)" xlink:title="pandemic (in general) → convinces &#160;→ Corona Conspiracy Believer → believes &#160;↩" target="details">
<path fill="none" stroke="forestgreen" stroke-width="2" d="M503.71,-33.44C516.36,-51.41 537.06,-80.82 551.65,-101.55"/>
<polygon fill="forestgreen" stroke="forestgreen" stroke-width="2" points="548.87,-103.69 557.49,-109.85 554.59,-99.66 548.87,-103.69"/>
</a>
</g>
<g id="a_PANBESY&#45;1___PANBESY&#45;4&#45;label"><a xlink:href="https://knowhere.atlassian.net/issues/?jql=key+in+(PANBESY-4,PANBESY-1)" xlink:title="pandemic (in general) → convinces &#160;→ Corona Conspiracy Believer → believes &#160;↩" target="details">
<text text-anchor="middle" x="565.5" y="-64" font-family="Times,serif" font-size="10.00">convinces </text>
</a>
</g>
</g>
<!-- PANBESY&#45;60 -->
<g id="PANBESY&#45;60" class="node">
<title>PANBESY&#45;60</title>
<g id="a_PANBESY&#45;60"><a xlink:href="https://knowhere.atlassian.net/browse/PANBESY-60" xlink:title=" " target="details">
<path fill="white" stroke="black" d="M315,-83C315,-83 164,-83 164,-83 158.5,-83 153,-77.5 153,-72 153,-72 153,-61 153,-61 153,-55.5 158.5,-50 164,-50 164,-50 315,-50 315,-50 320.5,-50 326,-55.5 326,-61 326,-61 326,-72 326,-72 326,-77.5 320.5,-83 315,-83"/>
<g id="a_PANBESY&#45;60_2"><a xlink:href="https://knowhere.atlassian.net/issues/?jql=type=10601+ORDER+BY+summary" xlink:title=" " target="details">
<image xlink:href="https://knowhere.atlassian.net/secure/viewavatar?size=small&amp;avatarId=10303&amp;avatarType=issuetype" width="18px" height="19px" preserveAspectRatio="xMinYMin meet" x="160.5" y="-76.5"/>
</a>
</g>
<text text-anchor="start" x="181.5" y="-63.3" font-family="Helvetica,sans-Serif" font-weight="bold" font-size="14.00">corona pandemic</text>
</a>
</g>
</g>
<!-- PANBESY&#45;1&#45;&gt;PANBESY&#45;60 -->
<g id="PANBESY&#45;1___PANBESY&#45;60" class="edge">
<title>PANBESY&#45;1&#45;&gt;PANBESY&#45;60</title>
<g id="a_PANBESY&#45;1___PANBESY&#45;60"><a xlink:href="https://knowhere.atlassian.net/issues/?jql=key+in+(PANBESY-60,PANBESY-1)" xlink:title="pandemic (in general) → generalizes △ → corona pandemic → specializes ▽ ↩" target="details">
<path fill="none" stroke="blue" d="M410.71,-33.02C385.36,-37.83 357.26,-43.16 331.29,-48.09"/>
<polygon fill="none" stroke="blue" points="330.62,-44.65 321.44,-49.95 331.92,-51.53 330.62,-44.65"/>
</a>
</g>
</g>
<!-- UNIVERSAL&#45;16 -->
<g id="UNIVERSAL&#45;16" class="node">
<title>UNIVERSAL&#45;16</title>
<g id="a_UNIVERSAL&#45;16"><a xlink:href="https://knowhere.atlassian.net/browse/UNIVERSAL-16" xlink:title=" " target="details">
<path fill="white" stroke="black" d="M422,-203C422,-203 355,-203 355,-203 349.5,-203 344,-197.5 344,-192 344,-192 344,-181 344,-181 344,-175.5 349.5,-170 355,-170 355,-170 422,-170 422,-170 427.5,-170 433,-175.5 433,-181 433,-181 433,-192 433,-192 433,-197.5 427.5,-203 422,-203"/>
<g id="a_UNIVERSAL&#45;16_3"><a xlink:href="https://knowhere.atlassian.net/issues/?jql=type=10667+ORDER+BY+summary" xlink:title=" " target="details">
<image xlink:href="https://knowhere.atlassian.net/secure/viewavatar?size=small&amp;avatarId=10309&amp;avatarType=issuetype" width="18px" height="19px" preserveAspectRatio="xMinYMin meet" x="351.5" y="-196.5"/>
</a>
</g>
<text text-anchor="start" x="371.5" y="-183.3" font-family="Helvetica,sans-Serif" font-weight="bold" font-size="14.00">Health</text>
</a>
</g>
</g>
<!-- PANBESY&#45;4&#45;&gt;UNIVERSAL&#45;16 -->
<g id="PANBESY&#45;4___UNIVERSAL&#45;16" class="edge">
<title>PANBESY&#45;4&#45;&gt;UNIVERSAL&#45;16</title>
<g id="a_PANBESY&#45;4___UNIVERSAL&#45;16"><a xlink:href="https://knowhere.atlassian.net/issues/?jql=key+in+(UNIVERSAL-16,PANBESY-4)" xlink:title="Corona Conspiracy Believer → aspires &#160;→ Health → sought by &#160;↩" target="details">
<path fill="none" stroke="forestgreen" stroke-width="2" d="M520.26,-143.04C496.36,-150.74 467.41,-160.07 442.74,-168.02"/>
<polygon fill="forestgreen" stroke="forestgreen" stroke-width="2" points="441.61,-164.71 433.16,-171.11 443.75,-171.37 441.61,-164.71"/>
</a>
</g>
<g id="a_PANBESY&#45;4___UNIVERSAL&#45;16&#45;label"><a xlink:href="https://knowhere.atlassian.net/issues/?jql=key+in+(UNIVERSAL-16,PANBESY-4)" xlink:title="Corona Conspiracy Believer → aspires &#160;→ Health → sought by &#160;↩" target="details">
<text text-anchor="middle" x="515.5" y="-154" font-family="Times,serif" font-size="10.00">aspires </text>
</a>
</g>
</g>
<!-- UNIVERSAL&#45;19 -->
<g id="UNIVERSAL&#45;19" class="node">
<title>UNIVERSAL&#45;19</title>
<g id="a_UNIVERSAL&#45;19"><a xlink:href="https://knowhere.atlassian.net/browse/UNIVERSAL-19" xlink:title=" " target="details">
<path fill="white" stroke="black" d="M102,-203C102,-203 11,-203 11,-203 5.5,-203 0,-197.5 0,-192 0,-192 0,-181 0,-181 0,-175.5 5.5,-170 11,-170 11,-170 102,-170 102,-170 107.5,-170 113,-175.5 113,-181 113,-181 113,-192 113,-192 113,-197.5 107.5,-203 102,-203"/>
<g id="a_UNIVERSAL&#45;19_4"><a xlink:href="https://knowhere.atlassian.net/issues/?jql=type=10667+ORDER+BY+summary" xlink:title=" " target="details">
<image xlink:href="https://knowhere.atlassian.net/secure/viewavatar?size=small&amp;avatarId=10309&amp;avatarType=issuetype" width="18px" height="19px" preserveAspectRatio="xMinYMin meet" x="7.5" y="-196.5"/>
</a>
</g>
<text text-anchor="start" x="28" y="-183.3" font-family="Helvetica,sans-Serif" font-weight="bold" font-size="14.00">Solidarity</text>
</a>
</g>
</g>
<!-- PANBESY&#45;4&#45;&gt;UNIVERSAL&#45;19 -->
<g id="PANBESY&#45;4___UNIVERSAL&#45;19" class="edge">
<title>PANBESY&#45;4&#45;&gt;UNIVERSAL&#45;19</title>
<g id="a_PANBESY&#45;4___UNIVERSAL&#45;19"><a xlink:href="https://knowhere.atlassian.net/issues/?jql=key+in+(UNIVERSAL-19,PANBESY-4)" xlink:title="Corona Conspiracy Believer → contributes to &#160;→ Solidarity → receives from &#160;↩" target="details">
<path fill="none" stroke="forestgreen" stroke-width="2" d="M441.45,-142.09C437.76,-142.41 434.11,-142.71 430.5,-143 353.33,-149.1 333.46,-142.63 256.5,-151 249.76,-151.73 178.83,-164.06 123.33,-173.77"/>
<polygon fill="forestgreen" stroke="forestgreen" stroke-width="2" points="122.41,-170.38 113.16,-175.55 123.61,-177.27 122.41,-170.38"/>
</a>
</g>
<g id="a_PANBESY&#45;4___UNIVERSAL&#45;19&#45;label"><a xlink:href="https://knowhere.atlassian.net/issues/?jql=key+in+(UNIVERSAL-19,PANBESY-4)" xlink:title="Corona Conspiracy Believer → contributes to &#160;→ Solidarity → receives from &#160;↩" target="details">
<text text-anchor="middle" x="293.5" y="-154" font-family="Times,serif" font-size="10.00">contributes to </text>
</a>
</g>
</g>
<!-- UNIVERSAL&#45;20 -->
<g id="UNIVERSAL&#45;20" class="node">
<title>UNIVERSAL&#45;20</title>
<g id="a_UNIVERSAL&#45;20"><a xlink:href="https://knowhere.atlassian.net/browse/UNIVERSAL-20" xlink:title=" " target="details">
<path fill="white" stroke="black" d="M596,-203C596,-203 541,-203 541,-203 535.5,-203 530,-197.5 530,-192 530,-192 530,-181 530,-181 530,-175.5 535.5,-170 541,-170 541,-170 596,-170 596,-170 601.5,-170 607,-175.5 607,-181 607,-181 607,-192 607,-192 607,-197.5 601.5,-203 596,-203"/>
<g id="a_UNIVERSAL&#45;20_5"><a xlink:href="https://knowhere.atlassian.net/issues/?jql=type=10667+ORDER+BY+summary" xlink:title=" " target="details">
<image xlink:href="https://knowhere.atlassian.net/secure/viewavatar?size=small&amp;avatarId=10309&amp;avatarType=issuetype" width="18px" height="19px" preserveAspectRatio="xMinYMin meet" x="537.5" y="-196.5"/>
</a>
</g>
<text text-anchor="start" x="558" y="-183.3" font-family="Helvetica,sans-Serif" font-weight="bold" font-size="14.00">Trust</text>
</a>
</g>
</g>
<!-- PANBESY&#45;4&#45;&gt;UNIVERSAL&#45;20 -->
<g id="PANBESY&#45;4___UNIVERSAL&#45;20" class="edge">
<title>PANBESY&#45;4&#45;&gt;UNIVERSAL&#45;20</title>
<g id="a_PANBESY&#45;4___UNIVERSAL&#45;20"><a xlink:href="https://knowhere.atlassian.net/issues/?jql=key+in+(UNIVERSAL-20,PANBESY-4)" xlink:title="Corona Conspiracy Believer → contributes to &#160;→ Trust → receives from &#160;↩" target="details">
<path fill="none" stroke="forestgreen" stroke-width="2" d="M568.5,-143.04C568.5,-148.11 568.5,-153.89 568.5,-159.51"/>
<polygon fill="forestgreen" stroke="forestgreen" stroke-width="2" points="565,-159.91 568.5,-169.91 572,-159.91 565,-159.91"/>
</a>
</g>
<g id="a_PANBESY&#45;4___UNIVERSAL&#45;20&#45;label"><a xlink:href="https://knowhere.atlassian.net/issues/?jql=key+in+(UNIVERSAL-20,PANBESY-4)" xlink:title="Corona Conspiracy Believer → contributes to &#160;→ Trust → receives from &#160;↩" target="details">
<text text-anchor="middle" x="605.5" y="-154" font-family="Times,serif" font-size="10.00">contributes to </text>
</a>
</g>
</g>
<!-- PANBESY&#45;3 -->
<g id="PANBESY&#45;3" class="node">
<title>PANBESY&#45;3</title>
<g id="a_PANBESY&#45;3"><a xlink:href="https://knowhere.atlassian.net/browse/PANBESY-3" xlink:title="a.k.a. “Conspiracy Denier”" target="details">
<path fill="white" stroke="black" d="M348.5,-143C348.5,-143 128.5,-143 128.5,-143 123,-143 117.5,-137.5 117.5,-132 117.5,-132 117.5,-121 117.5,-121 117.5,-115.5 123,-110 128.5,-110 128.5,-110 348.5,-110 348.5,-110 354,-110 359.5,-115.5 359.5,-121 359.5,-121 359.5,-132 359.5,-132 359.5,-137.5 354,-143 348.5,-143"/>
<g id="a_PANBESY&#45;3_6"><a xlink:href="https://knowhere.atlassian.net/issues/?jql=type=10628+ORDER+BY+summary" xlink:title="a.k.a. “Conspiracy Denier”" target="details">
<image xlink:href="https://knowhere.atlassian.net/secure/viewavatar?size=small&amp;avatarId=11491&amp;avatarType=issuetype" width="16px" height="12px" preserveAspectRatio="xMinYMin meet" x="125.5" y="-136.5"/>
</a>
</g>
<text text-anchor="start" x="144.5" y="-123.3" font-family="Helvetica,sans-Serif" font-weight="bold" font-size="14.00">Corona Pandemic Believer</text>
</a>
</g>
</g>
<!-- PANBESY&#45;60&#45;&gt;PANBESY&#45;3 -->
<g id="PANBESY&#45;60___PANBESY&#45;3" class="edge">
<title>PANBESY&#45;60&#45;&gt;PANBESY&#45;3</title>
<g id="a_PANBESY&#45;60___PANBESY&#45;3"><a xlink:href="https://knowhere.atlassian.net/issues/?jql=key+in+(PANBESY-3,PANBESY-60)" xlink:title="corona pandemic → convinces &#160;→ Corona Pandemic Believer → believes &#160;↩" target="details">
<path fill="none" stroke="forestgreen" stroke-width="2" d="M239.23,-83.04C239.14,-88.11 239.04,-93.89 238.95,-99.51"/>
<polygon fill="forestgreen" stroke="forestgreen" stroke-width="2" points="235.44,-99.86 238.77,-109.91 242.44,-99.98 235.44,-99.86"/>
</a>
</g>
<g id="a_PANBESY&#45;60___PANBESY&#45;3&#45;label"><a xlink:href="https://knowhere.atlassian.net/issues/?jql=key+in+(PANBESY-3,PANBESY-60)" xlink:title="corona pandemic → convinces &#160;→ Corona Pandemic Believer → believes &#160;↩" target="details">
<text text-anchor="middle" x="266.5" y="-94" font-family="Times,serif" font-size="10.00">convinces </text>
</a>
</g>
</g>
<!-- PANBESY&#45;2 -->
<g id="PANBESY&#45;2" class="node">
<title>PANBESY&#45;2</title>
<g id="a_PANBESY&#45;2"><a xlink:href="https://knowhere.atlassian.net/browse/PANBESY-2" xlink:title=" " target="details">
<path fill="white" stroke="black" d="M893,-83C893,-83 736,-83 736,-83 730.5,-83 725,-77.5 725,-72 725,-72 725,-61 725,-61 725,-55.5 730.5,-50 736,-50 736,-50 893,-50 893,-50 898.5,-50 904,-55.5 904,-61 904,-61 904,-72 904,-72 904,-77.5 898.5,-83 893,-83"/>
<g id="a_PANBESY&#45;2_7"><a xlink:href="https://knowhere.atlassian.net/issues/?jql=type=10654+ORDER+BY+summary" xlink:title=" " target="details">
<image xlink:href="https://knowhere.atlassian.net/secure/viewavatar?size=small&amp;avatarId=11505&amp;avatarType=issuetype" width="16px" height="12px" preserveAspectRatio="xMinYMin meet" x="733.5" y="-76.5"/>
</a>
</g>
<text text-anchor="start" x="752.5" y="-63.3" font-family="Helvetica,sans-Serif" font-weight="bold" font-size="14.00">corona conspiracy</text>
</a>
</g>
</g>
<!-- PANBESY&#45;2&#45;&gt;PANBESY&#45;4 -->
<g id="PANBESY&#45;2___PANBESY&#45;4" class="edge">
<title>PANBESY&#45;2&#45;&gt;PANBESY&#45;4</title>
<g id="a_PANBESY&#45;2___PANBESY&#45;4"><a xlink:href="https://knowhere.atlassian.net/issues/?jql=key+in+(PANBESY-4,PANBESY-2)" xlink:title="corona conspiracy → convinces &#160;→ Corona Conspiracy Believer → believes &#160;↩" target="details">
<path fill="none" stroke="forestgreen" stroke-width="2" d="M748.58,-83.04C716.59,-90.58 677.99,-99.69 644.74,-107.53"/>
<polygon fill="forestgreen" stroke="forestgreen" stroke-width="2" points="643.54,-104.21 634.61,-109.91 645.14,-111.03 643.54,-104.21"/>
</a>
</g>
<g id="a_PANBESY&#45;2___PANBESY&#45;4&#45;label"><a xlink:href="https://knowhere.atlassian.net/issues/?jql=key+in+(PANBESY-4,PANBESY-2)" xlink:title="corona conspiracy → convinces &#160;→ Corona Conspiracy Believer → believes &#160;↩" target="details">
<text text-anchor="middle" x="741.5" y="-94" font-family="Times,serif" font-size="10.00">convinces </text>
</a>
</g>
</g>
<!-- PANBESY&#45;3&#45;&gt;UNIVERSAL&#45;16 -->
<g id="PANBESY&#45;3___UNIVERSAL&#45;16" class="edge">
<title>PANBESY&#45;3&#45;&gt;UNIVERSAL&#45;16</title>
<g id="a_PANBESY&#45;3___UNIVERSAL&#45;16"><a xlink:href="https://knowhere.atlassian.net/issues/?jql=key+in+(UNIVERSAL-16,PANBESY-3)" xlink:title="Corona Pandemic Believer → aspires &#160;→ Health → sought by &#160;↩" target="details">
<path fill="none" stroke="forestgreen" stroke-width="2" d="M153.97,-143.17C146.6,-147.91 144.3,-154.05 151.5,-162 163.5,-175.25 267.51,-181.33 333.7,-183.87"/>
<polygon fill="forestgreen" stroke="forestgreen" stroke-width="2" points="333.85,-187.38 343.97,-184.25 334.11,-180.38 333.85,-187.38"/>
</a>
</g>
<g id="a_PANBESY&#45;3___UNIVERSAL&#45;16&#45;label"><a xlink:href="https://knowhere.atlassian.net/issues/?jql=key+in+(UNIVERSAL-16,PANBESY-3)" xlink:title="Corona Pandemic Believer → aspires &#160;→ Health → sought by &#160;↩" target="details">
<text text-anchor="middle" x="171.5" y="-154" font-family="Times,serif" font-size="10.00">aspires </text>
</a>
</g>
</g>
<!-- PANBESY&#45;3&#45;&gt;UNIVERSAL&#45;19 -->
<g id="PANBESY&#45;3___UNIVERSAL&#45;19" class="edge">
<title>PANBESY&#45;3&#45;&gt;UNIVERSAL&#45;19</title>
<g id="a_PANBESY&#45;3___UNIVERSAL&#45;19"><a xlink:href="https://knowhere.atlassian.net/issues/?jql=key+in+(UNIVERSAL-19,PANBESY-3)" xlink:title="Corona Pandemic Believer → contributes to &#160;→ Solidarity → receives from &#160;↩" target="details">
<path fill="none" stroke="forestgreen" stroke-width="2" d="M117.07,-142.37C92.32,-145.84 72.97,-149.08 70.5,-151 67.27,-153.52 64.78,-156.91 62.86,-160.58"/>
<polygon fill="forestgreen" stroke="forestgreen" stroke-width="2" points="59.57,-159.38 59.18,-169.97 66.09,-161.94 59.57,-159.38"/>
</a>
</g>
<g id="a_PANBESY&#45;3___UNIVERSAL&#45;19&#45;label"><a xlink:href="https://knowhere.atlassian.net/issues/?jql=key+in+(UNIVERSAL-19,PANBESY-3)" xlink:title="Corona Pandemic Believer → contributes to &#160;→ Solidarity → receives from &#160;↩" target="details">
<text text-anchor="middle" x="107.5" y="-154" font-family="Times,serif" font-size="10.00">contributes to </text>
</a>
</g>
</g>
<!-- PANBESY&#45;3&#45;&gt;UNIVERSAL&#45;20 -->
<g id="PANBESY&#45;3___UNIVERSAL&#45;20" class="edge">
<title>PANBESY&#45;3&#45;&gt;UNIVERSAL&#45;20</title>
<g id="a_PANBESY&#45;3___UNIVERSAL&#45;20"><a xlink:href="https://knowhere.atlassian.net/issues/?jql=key+in+(UNIVERSAL-20,PANBESY-3)" xlink:title="Corona Pandemic Believer → contributes to &#160;→ Trust → receives from &#160;↩" target="details">
<path fill="none" stroke="forestgreen" stroke-width="2" d="M298.29,-143C324.86,-149.51 356.61,-156.77 385.5,-162 410.43,-166.51 474.42,-174.42 519.68,-179.81"/>
<polygon fill="forestgreen" stroke="forestgreen" stroke-width="2" points="519.55,-183.31 529.89,-181.02 520.37,-176.36 519.55,-183.31"/>
</a>
</g>
<g id="a_PANBESY&#45;3___UNIVERSAL&#45;20&#45;label"><a xlink:href="https://knowhere.atlassian.net/issues/?jql=key+in+(UNIVERSAL-20,PANBESY-3)" xlink:title="Corona Pandemic Believer → contributes to &#160;→ Trust → receives from &#160;↩" target="details">
<text text-anchor="middle" x="422.5" y="-154" font-family="Times,serif" font-size="10.00">contributes to </text>
</a>
</g>
</g>
<!-- UNIVERSAL&#45;12 -->
<g id="UNIVERSAL&#45;12" class="node">
<title>UNIVERSAL&#45;12</title>
<g id="a_UNIVERSAL&#45;12"><a xlink:href="https://knowhere.atlassian.net/browse/UNIVERSAL-12" xlink:title=" " target="details">
<path fill="white" stroke="black" d="M422.5,-83C422.5,-83 352.5,-83 352.5,-83 347,-83 341.5,-77.5 341.5,-72 341.5,-72 341.5,-61 341.5,-61 341.5,-55.5 347,-50 352.5,-50 352.5,-50 422.5,-50 422.5,-50 428,-50 433.5,-55.5 433.5,-61 433.5,-61 433.5,-72 433.5,-72 433.5,-77.5 428,-83 422.5,-83"/>
<g id="a_UNIVERSAL&#45;12_8"><a xlink:href="https://knowhere.atlassian.net/issues/?jql=type=10628+ORDER+BY+summary" xlink:title=" " target="details">
<image xlink:href="https://knowhere.atlassian.net/secure/viewavatar?size=small&amp;avatarId=11491&amp;avatarType=issuetype" width="16px" height="12px" preserveAspectRatio="xMinYMin meet" x="349.5" y="-76.5"/>
</a>
</g>
<text text-anchor="start" x="368.5" y="-63.3" font-family="Helvetica,sans-Serif" font-weight="bold" font-size="14.00">Human</text>
</a>
</g>
</g>
<!-- UNIVERSAL&#45;12&#45;&gt;PANBESY&#45;4 -->
<g id="UNIVERSAL&#45;12___PANBESY&#45;4" class="edge">
<title>UNIVERSAL&#45;12&#45;&gt;PANBESY&#45;4</title>
<g id="a_UNIVERSAL&#45;12___PANBESY&#45;4"><a xlink:href="https://knowhere.atlassian.net/issues/?jql=key+in+(PANBESY-4,UNIVERSAL-12)" xlink:title="Human → generalizes △ → Corona Conspiracy Believer → specializes ▽ ↩" target="details">
<path fill="none" stroke="blue" d="M433.64,-82.29C456.94,-89.75 485.46,-98.89 510.25,-106.84"/>
<polygon fill="none" stroke="blue" points="509.32,-110.21 519.91,-109.93 511.45,-103.54 509.32,-110.21"/>
</a>
</g>
</g>
<!-- UNIVERSAL&#45;12&#45;&gt;PANBESY&#45;3 -->
<g id="UNIVERSAL&#45;12___PANBESY&#45;3" class="edge">
<title>UNIVERSAL&#45;12&#45;&gt;PANBESY&#45;3</title>
<g id="a_UNIVERSAL&#45;12___PANBESY&#45;3"><a xlink:href="https://knowhere.atlassian.net/issues/?jql=key+in+(PANBESY-3,UNIVERSAL-12)" xlink:title="Human → generalizes △ → Corona Pandemic Believer → specializes ▽ ↩" target="details">
<path fill="none" stroke="blue" d="M347.57,-83.04C329.28,-90.16 307.42,-98.67 288.09,-106.2"/>
<polygon fill="none" stroke="blue" points="286.59,-103.03 278.54,-109.91 289.13,-109.55 286.59,-103.03"/>
</a>
</g>
</g>
<!-- UNIVERSAL&#45;12&#45;&gt;UNIVERSAL&#45;16 -->
<g id="UNIVERSAL&#45;12___UNIVERSAL&#45;16" class="edge">
<title>UNIVERSAL&#45;12&#45;&gt;UNIVERSAL&#45;16</title>
<g id="a_UNIVERSAL&#45;12___UNIVERSAL&#45;16"><a xlink:href="https://knowhere.atlassian.net/issues/?jql=key+in+(UNIVERSAL-16,UNIVERSAL-12)" xlink:title="Human → aspires &#160;→ Health → sought by &#160;↩" target="details">
<path fill="none" stroke="forestgreen" stroke-width="2" d="M387.63,-83.41C387.8,-102.96 388.08,-136.39 388.28,-159.65"/>
<polygon fill="forestgreen" stroke="forestgreen" stroke-width="2" points="384.78,-159.87 388.37,-169.84 391.78,-159.81 384.78,-159.87"/>
</a>
</g>
<g id="a_UNIVERSAL&#45;12___UNIVERSAL&#45;16&#45;label"><a xlink:href="https://knowhere.atlassian.net/issues/?jql=key+in+(UNIVERSAL-16,UNIVERSAL-12)" xlink:title="Human → aspires &#160;→ Health → sought by &#160;↩" target="details">
<text text-anchor="middle" x="408.5" y="-124" font-family="Times,serif" font-size="10.00">aspires </text>
</a>
</g>
</g>
<!-- UNIVERSAL&#45;12&#45;&gt;UNIVERSAL&#45;19 -->
<g id="UNIVERSAL&#45;12___UNIVERSAL&#45;19" class="edge">
<title>UNIVERSAL&#45;12&#45;&gt;UNIVERSAL&#45;19</title>
<g id="a_UNIVERSAL&#45;12___UNIVERSAL&#45;19"><a xlink:href="https://knowhere.atlassian.net/issues/?jql=key+in+(UNIVERSAL-19,UNIVERSAL-12)" xlink:title="Human → contributes to &#160;→ Solidarity → receives from &#160;↩" target="details">
<path fill="none" stroke="forestgreen" stroke-width="2" d="M341.44,-81.17C338.43,-81.85 335.43,-82.47 332.5,-83 300,-88.88 58.72,-85.57 36.5,-110 23.92,-123.84 30.7,-144.68 39.63,-160.96"/>
<polygon fill="forestgreen" stroke="forestgreen" stroke-width="2" points="36.87,-163.16 45.01,-169.94 42.87,-159.56 36.87,-163.16"/>
</a>
</g>
<g id="a_UNIVERSAL&#45;12___UNIVERSAL&#45;19&#45;label"><a xlink:href="https://knowhere.atlassian.net/issues/?jql=key+in+(UNIVERSAL-19,UNIVERSAL-12)" xlink:title="Human → contributes to &#160;→ Solidarity → receives from &#160;↩" target="details">
<text text-anchor="middle" x="73.5" y="-124" font-family="Times,serif" font-size="10.00">contributes to </text>
</a>
</g>
</g>
<!-- UNIVERSAL&#45;12&#45;&gt;UNIVERSAL&#45;20 -->
<g id="UNIVERSAL&#45;12___UNIVERSAL&#45;20" class="edge">
<title>UNIVERSAL&#45;12&#45;&gt;UNIVERSAL&#45;20</title>
<g id="a_UNIVERSAL&#45;12___UNIVERSAL&#45;20"><a xlink:href="https://knowhere.atlassian.net/issues/?jql=key+in+(UNIVERSAL-20,UNIVERSAL-12)" xlink:title="Human → contributes to &#160;→ Trust → receives from &#160;↩" target="details">
<path fill="none" stroke="forestgreen" stroke-width="2" d="M433.59,-73.33C520.54,-84.37 700.3,-107.48 702.5,-110 712.15,-121.04 711.08,-131.1 702.5,-143 683.29,-169.65 647.22,-180.03 617.35,-183.87"/>
<polygon fill="forestgreen" stroke="forestgreen" stroke-width="2" points="616.64,-180.43 607.07,-184.98 617.39,-187.39 616.64,-180.43"/>
</a>
</g>
<g id="a_UNIVERSAL&#45;12___UNIVERSAL&#45;20&#45;label"><a xlink:href="https://knowhere.atlassian.net/issues/?jql=key+in+(UNIVERSAL-20,UNIVERSAL-12)" xlink:title="Human → contributes to &#160;→ Trust → receives from &#160;↩" target="details">
<text text-anchor="middle" x="746.5" y="-124" font-family="Times,serif" font-size="10.00">contributes to </text>
</a>
</g>
</g>
</g>
</svg>
