<?xml version="1.0" encoding="UTF-8" standalone="no"?>
<!DOCTYPE svg PUBLIC "-//W3C//DTD SVG 1.1//EN"
 "http://www.w3.org/Graphics/SVG/1.1/DTD/svg11.dtd">
<!-- Generated by graphviz version 2.43.0 (0)
 -->
<!-- Title: %3 Pages: 1 -->
<svg width="688pt" height="211pt"
 viewBox="0.00 0.00 688.00 211.00" xmlns="http://www.w3.org/2000/svg" xmlns:xlink="http://www.w3.org/1999/xlink">
<title>Pandemic Belief Systems, one-pager</title>
<g id="graph0" class="graph" transform="scale(1 1) rotate(0) translate(4 207)">
<title>%3</title>
<g id="a_graph0"><a xlink:title=" " target="details">
<polygon fill="white" stroke="transparent" points="-4,4 -4,-207 684,-207 684,4 -4,4"/>
</a>
</g>
<!-- PANBESY&#45;1 -->
<g id="PANBESY&#45;1" class="node">
<title>PANBESY&#45;1</title>
<g id="a_PANBESY&#45;1"><a xlink:href="https://knowhere.atlassian.net/browse/PANBESY-1" xlink:title=" " target="details">
<path fill="white" stroke="#fd8d3c" d="M431.5,-33C431.5,-33 244.5,-33 244.5,-33 239,-33 233.5,-27.5 233.5,-22 233.5,-22 233.5,-11 233.5,-11 233.5,-5.5 239,0 244.5,0 244.5,0 431.5,0 431.5,0 437,0 442.5,-5.5 442.5,-11 442.5,-11 442.5,-22 442.5,-22 442.5,-27.5 437,-33 431.5,-33"/>
<g id="a_PANBESY&#45;1_0"><a xlink:href="https://knowhere.atlassian.net/issues/?jql=type=%22Konzept%22+ORDER+BY+summary" xlink:title=" " target="details">
<image xlink:href="https://knowhere.atlassian.net/secure/viewavatar?size=small&amp;avatarId=11505&amp;avatarType=issuetype" width="16px" height="12px" preserveAspectRatio="xMinYMin meet" x="242" y="-26.5"/>
</a>
</g>
<text text-anchor="start" x="261" y="-13.3" font-family="Helvetica,sans-Serif" font-weight="bold" font-size="14.00">pandemic (in general)</text>
</a>
</g>
</g>
<!-- PANBESY&#45;4 -->
<g id="PANBESY&#45;4" class="node">
<title>PANBESY&#45;4</title>
<g id="a_PANBESY&#45;4"><a xlink:href="https://knowhere.atlassian.net/browse/PANBESY-4" xlink:title="a.k.a. “Corona Denier”" target="details">
<path fill="white" stroke="black" d="M669,-143C669,-143 437,-143 437,-143 431.5,-143 426,-137.5 426,-132 426,-132 426,-121 426,-121 426,-115.5 431.5,-110 437,-110 437,-110 669,-110 669,-110 674.5,-110 680,-115.5 680,-121 680,-121 680,-132 680,-132 680,-137.5 674.5,-143 669,-143"/>
<g id="a_PANBESY&#45;4_1"><a xlink:href="https://knowhere.atlassian.net/issues/?jql=type=%22Akteur%22+ORDER+BY+summary" xlink:title="a.k.a. “Corona Denier”" target="details">
<image xlink:href="https://knowhere.atlassian.net/secure/viewavatar?size=small&amp;avatarId=11491&amp;avatarType=issuetype" width="16px" height="12px" preserveAspectRatio="xMinYMin meet" x="434" y="-136.5"/>
</a>
</g>
<text text-anchor="start" x="453.5" y="-123.3" font-family="Helvetica,sans-Serif" font-weight="bold" font-size="14.00">Corona Conspiracy Believer</text>
</a>
</g>
</g>
<!-- PANBESY&#45;1&#45;&gt;PANBESY&#45;4 -->
<g id="PANBESY&#45;1___PANBESY&#45;4" class="edge">
<title>PANBESY&#45;1&#45;&gt;PANBESY&#45;4</title>
<g id="a_PANBESY&#45;1___PANBESY&#45;4"><a xlink:href="https://knowhere.atlassian.net/issues/?jql=key+in+(PANBESY-4,PANBESY-1)" xlink:title="pandemic (in general) → convinces &#160;→ Corona Conspiracy Believer → believes &#160;↩" target="details">
<path fill="none" stroke="forestgreen" stroke-width="2" d="M442.75,-25.03C480.94,-29.81 518.17,-37.55 532,-50 545.85,-62.47 550.89,-83.21 552.59,-99.8"/>
<polygon fill="forestgreen" stroke="forestgreen" stroke-width="2" points="549.11,-100.24 553.27,-109.98 556.09,-99.77 549.11,-100.24"/>
</a>
</g>
<g id="a_PANBESY&#45;1___PANBESY&#45;4&#45;label"><a xlink:href="https://knowhere.atlassian.net/issues/?jql=key+in+(PANBESY-4,PANBESY-1)" xlink:title="pandemic (in general) → convinces &#160;→ Corona Conspiracy Believer → believes &#160;↩" target="details">
<text text-anchor="middle" x="576" y="-64" font-family="Times,serif" font-size="10.00">convinces </text>
</a>
</g>
</g>
<!-- PANBESY&#45;60 -->
<g id="PANBESY&#45;60" class="node">
<title>PANBESY&#45;60</title>
<g id="a_PANBESY&#45;60"><a xlink:href="https://knowhere.atlassian.net/browse/PANBESY-60" xlink:title=" " target="details">
<path fill="white" stroke="#fd8d3c" d="M205.5,-83C205.5,-83 54.5,-83 54.5,-83 49,-83 43.5,-77.5 43.5,-72 43.5,-72 43.5,-61 43.5,-61 43.5,-55.5 49,-50 54.5,-50 54.5,-50 205.5,-50 205.5,-50 211,-50 216.5,-55.5 216.5,-61 216.5,-61 216.5,-72 216.5,-72 216.5,-77.5 211,-83 205.5,-83"/>
<g id="a_PANBESY&#45;60_2"><a xlink:href="https://knowhere.atlassian.net/issues/?jql=type=%22Konzept%22+ORDER+BY+summary" xlink:title=" " target="details">
<image xlink:href="https://knowhere.atlassian.net/secure/viewavatar?size=small&amp;avatarId=11505&amp;avatarType=issuetype" width="16px" height="12px" preserveAspectRatio="xMinYMin meet" x="52" y="-76.5"/>
</a>
</g>
<text text-anchor="start" x="72" y="-63.3" font-family="Helvetica,sans-Serif" font-weight="bold" font-size="14.00">corona pandemic</text>
</a>
</g>
</g>
<!-- PANBESY&#45;1&#45;&gt;PANBESY&#45;60 -->
<g id="PANBESY&#45;1___PANBESY&#45;60" class="edge">
<title>PANBESY&#45;1&#45;&gt;PANBESY&#45;60</title>
<g id="a_PANBESY&#45;1___PANBESY&#45;60"><a xlink:href="https://knowhere.atlassian.net/issues/?jql=key+in+(PANBESY-60,PANBESY-1)" xlink:title="pandemic (in general) → generalizes △ → corona pandemic → specializes ▽ ↩" target="details">
<path fill="none" stroke="blue" d="M270.76,-33.02C250.47,-37.7 228.04,-42.88 207.16,-47.69"/>
<polygon fill="none" stroke="blue" points="206.33,-44.29 197.37,-49.95 207.9,-51.12 206.33,-44.29"/>
</a>
</g>
</g>
<!-- UNIVERSAL&#45;16 -->
<g id="UNIVERSAL&#45;16" class="node">
<title>UNIVERSAL&#45;16</title>
<g id="a_UNIVERSAL&#45;16"><a xlink:href="https://knowhere.atlassian.net/browse/UNIVERSAL-16" xlink:title=" " target="details">
<path fill="white" stroke="black" d="M411.5,-203C411.5,-203 344.5,-203 344.5,-203 339,-203 333.5,-197.5 333.5,-192 333.5,-192 333.5,-181 333.5,-181 333.5,-175.5 339,-170 344.5,-170 344.5,-170 411.5,-170 411.5,-170 417,-170 422.5,-175.5 422.5,-181 422.5,-181 422.5,-192 422.5,-192 422.5,-197.5 417,-203 411.5,-203"/>
<g id="a_UNIVERSAL&#45;16_3"><a xlink:href="https://knowhere.atlassian.net/issues/?jql=type=%22Value%22+ORDER+BY+summary" xlink:title=" " target="details">
<image xlink:href="https://knowhere.atlassian.net/secure/viewavatar?size=small&amp;avatarId=10309&amp;avatarType=issuetype" width="18px" height="19px" preserveAspectRatio="xMinYMin meet" x="341" y="-196.5"/>
</a>
</g>
<text text-anchor="start" x="361" y="-183.3" font-family="Helvetica,sans-Serif" font-weight="bold" font-size="14.00">Health</text>
</a>
</g>
</g>
<!-- PANBESY&#45;4&#45;&gt;UNIVERSAL&#45;16 -->
<g id="PANBESY&#45;4___UNIVERSAL&#45;16" class="edge">
<title>PANBESY&#45;4&#45;&gt;UNIVERSAL&#45;16</title>
<g id="a_PANBESY&#45;4___UNIVERSAL&#45;16"><a xlink:href="https://knowhere.atlassian.net/issues/?jql=key+in+(UNIVERSAL-16,PANBESY-4)" xlink:title="Corona Conspiracy Believer → aspires &#160;→ Health → sought by &#160;↩" target="details">
<path fill="none" stroke="forestgreen" stroke-width="2" d="M535.44,-143.35C527.07,-150.09 516.59,-157.43 506,-162 483.05,-171.9 456.03,-177.64 432.75,-180.95"/>
<polygon fill="forestgreen" stroke="forestgreen" stroke-width="2" points="432.14,-177.5 422.68,-182.27 433.05,-184.44 432.14,-177.5"/>
</a>
</g>
<g id="a_PANBESY&#45;4___UNIVERSAL&#45;16&#45;label"><a xlink:href="https://knowhere.atlassian.net/issues/?jql=key+in+(UNIVERSAL-16,PANBESY-4)" xlink:title="Corona Conspiracy Believer → aspires &#160;→ Health → sought by &#160;↩" target="details">
<text text-anchor="middle" x="544" y="-154" font-family="Times,serif" font-size="10.00">aspires </text>
</a>
</g>
</g>
<!-- UNIVERSAL&#45;19 -->
<g id="UNIVERSAL&#45;19" class="node">
<title>UNIVERSAL&#45;19</title>
<g id="a_UNIVERSAL&#45;19"><a xlink:href="https://knowhere.atlassian.net/browse/UNIVERSAL-19" xlink:title=" " target="details">
<path fill="white" stroke="black" d="M308.5,-203C308.5,-203 217.5,-203 217.5,-203 212,-203 206.5,-197.5 206.5,-192 206.5,-192 206.5,-181 206.5,-181 206.5,-175.5 212,-170 217.5,-170 217.5,-170 308.5,-170 308.5,-170 314,-170 319.5,-175.5 319.5,-181 319.5,-181 319.5,-192 319.5,-192 319.5,-197.5 314,-203 308.5,-203"/>
<g id="a_UNIVERSAL&#45;19_4"><a xlink:href="https://knowhere.atlassian.net/issues/?jql=type=%22Value%22+ORDER+BY+summary" xlink:title=" " target="details">
<image xlink:href="https://knowhere.atlassian.net/secure/viewavatar?size=small&amp;avatarId=10309&amp;avatarType=issuetype" width="18px" height="19px" preserveAspectRatio="xMinYMin meet" x="214" y="-196.5"/>
</a>
</g>
<text text-anchor="start" x="234.5" y="-183.3" font-family="Helvetica,sans-Serif" font-weight="bold" font-size="14.00">Solidarity</text>
</a>
</g>
</g>
<!-- PANBESY&#45;4&#45;&gt;UNIVERSAL&#45;19 -->
<g id="PANBESY&#45;4___UNIVERSAL&#45;19" class="edge">
<title>PANBESY&#45;4&#45;&gt;UNIVERSAL&#45;19</title>
<g id="a_PANBESY&#45;4___UNIVERSAL&#45;19"><a xlink:href="https://knowhere.atlassian.net/issues/?jql=key+in+(UNIVERSAL-19,PANBESY-4)" xlink:title="Corona Conspiracy Believer → contributes to &#160;→ Solidarity → receives from &#160;↩" target="details">
<path fill="none" stroke="forestgreen" stroke-width="2" d="M463.83,-143C424.59,-150.11 377.75,-158.97 329.6,-169.26"/>
<polygon fill="forestgreen" stroke="forestgreen" stroke-width="2" points="328.67,-165.88 319.63,-171.41 330.15,-172.72 328.67,-165.88"/>
</a>
</g>
<g id="a_PANBESY&#45;4___UNIVERSAL&#45;19&#45;label"><a xlink:href="https://knowhere.atlassian.net/issues/?jql=key+in+(UNIVERSAL-19,PANBESY-4)" xlink:title="Corona Conspiracy Believer → contributes to &#160;→ Solidarity → receives from &#160;↩" target="details">
<text text-anchor="middle" x="457" y="-154" font-family="Times,serif" font-size="10.00">contributes to </text>
</a>
</g>
</g>
<!-- PANBESY&#45;3 -->
<g id="PANBESY&#45;3" class="node">
<title>PANBESY&#45;3</title>
<g id="a_PANBESY&#45;3"><a xlink:href="https://knowhere.atlassian.net/browse/PANBESY-3" xlink:title="a.k.a. “Conspiracy Denier”" target="details">
<path fill="white" stroke="black" d="M231,-143C231,-143 11,-143 11,-143 5.5,-143 0,-137.5 0,-132 0,-132 0,-121 0,-121 0,-115.5 5.5,-110 11,-110 11,-110 231,-110 231,-110 236.5,-110 242,-115.5 242,-121 242,-121 242,-132 242,-132 242,-137.5 236.5,-143 231,-143"/>
<g id="a_PANBESY&#45;3_5"><a xlink:href="https://knowhere.atlassian.net/issues/?jql=type=%22Akteur%22+ORDER+BY+summary" xlink:title="a.k.a. “Conspiracy Denier”" target="details">
<image xlink:href="https://knowhere.atlassian.net/secure/viewavatar?size=small&amp;avatarId=11491&amp;avatarType=issuetype" width="16px" height="12px" preserveAspectRatio="xMinYMin meet" x="8" y="-136.5"/>
</a>
</g>
<text text-anchor="start" x="27" y="-123.3" font-family="Helvetica,sans-Serif" font-weight="bold" font-size="14.00">Corona Pandemic Believer</text>
</a>
</g>
</g>
<!-- PANBESY&#45;60&#45;&gt;PANBESY&#45;3 -->
<g id="PANBESY&#45;60___PANBESY&#45;3" class="edge">
<title>PANBESY&#45;60&#45;&gt;PANBESY&#45;3</title>
<g id="a_PANBESY&#45;60___PANBESY&#45;3"><a xlink:href="https://knowhere.atlassian.net/issues/?jql=key+in+(PANBESY-3,PANBESY-60)" xlink:title="corona pandemic → convinces &#160;→ Corona Pandemic Believer → believes &#160;↩" target="details">
<path fill="none" stroke="forestgreen" stroke-width="2" d="M127.59,-83.04C126.78,-88.24 125.86,-94.19 124.97,-99.95"/>
<polygon fill="forestgreen" stroke="forestgreen" stroke-width="2" points="121.49,-99.5 123.42,-109.91 128.41,-100.57 121.49,-99.5"/>
</a>
</g>
<g id="a_PANBESY&#45;60___PANBESY&#45;3&#45;label"><a xlink:href="https://knowhere.atlassian.net/issues/?jql=key+in+(PANBESY-3,PANBESY-60)" xlink:title="corona pandemic → convinces &#160;→ Corona Pandemic Believer → believes &#160;↩" target="details">
<text text-anchor="middle" x="154" y="-94" font-family="Times,serif" font-size="10.00">convinces </text>
</a>
</g>
</g>
<!-- PANBESY&#45;2 -->
<g id="PANBESY&#45;2" class="node">
<title>PANBESY&#45;2</title>
<g id="a_PANBESY&#45;2"><a xlink:href="https://knowhere.atlassian.net/browse/PANBESY-2" xlink:title=" " target="details">
<path fill="white" stroke="black" d="M513.5,-83C513.5,-83 356.5,-83 356.5,-83 351,-83 345.5,-77.5 345.5,-72 345.5,-72 345.5,-61 345.5,-61 345.5,-55.5 351,-50 356.5,-50 356.5,-50 513.5,-50 513.5,-50 519,-50 524.5,-55.5 524.5,-61 524.5,-61 524.5,-72 524.5,-72 524.5,-77.5 519,-83 513.5,-83"/>
<g id="a_PANBESY&#45;2_6"><a xlink:href="https://knowhere.atlassian.net/issues/?jql=type=%22Konzept%22+ORDER+BY+summary" xlink:title=" " target="details">
<image xlink:href="https://knowhere.atlassian.net/secure/viewavatar?size=small&amp;avatarId=11505&amp;avatarType=issuetype" width="16px" height="12px" preserveAspectRatio="xMinYMin meet" x="354" y="-76.5"/>
</a>
</g>
<text text-anchor="start" x="373" y="-63.3" font-family="Helvetica,sans-Serif" font-weight="bold" font-size="14.00">corona conspiracy</text>
</a>
</g>
</g>
<!-- PANBESY&#45;2&#45;&gt;PANBESY&#45;4 -->
<g id="PANBESY&#45;2___PANBESY&#45;4" class="edge">
<title>PANBESY&#45;2&#45;&gt;PANBESY&#45;4</title>
<g id="a_PANBESY&#45;2___PANBESY&#45;4"><a xlink:href="https://knowhere.atlassian.net/issues/?jql=key+in+(PANBESY-4,PANBESY-2)" xlink:title="corona conspiracy → convinces &#160;→ Corona Conspiracy Believer → believes &#160;↩" target="details">
<path fill="none" stroke="forestgreen" stroke-width="2" d="M456.5,-83.11C465.88,-89.49 477.19,-96.62 488,-102 490.76,-103.37 493.62,-104.71 496.53,-106"/>
<polygon fill="forestgreen" stroke="forestgreen" stroke-width="2" points="495.37,-109.31 505.94,-109.95 498.08,-102.85 495.37,-109.31"/>
</a>
</g>
<g id="a_PANBESY&#45;2___PANBESY&#45;4&#45;label"><a xlink:href="https://knowhere.atlassian.net/issues/?jql=key+in+(PANBESY-4,PANBESY-2)" xlink:title="corona conspiracy → convinces &#160;→ Corona Conspiracy Believer → believes &#160;↩" target="details">
<text text-anchor="middle" x="515" y="-94" font-family="Times,serif" font-size="10.00">convinces </text>
</a>
</g>
</g>
<!-- PANBESY&#45;3&#45;&gt;UNIVERSAL&#45;16 -->
<g id="PANBESY&#45;3___UNIVERSAL&#45;16" class="edge">
<title>PANBESY&#45;3&#45;&gt;UNIVERSAL&#45;16</title>
<g id="a_PANBESY&#45;3___UNIVERSAL&#45;16"><a xlink:href="https://knowhere.atlassian.net/issues/?jql=key+in+(UNIVERSAL-16,PANBESY-3)" xlink:title="Corona Pandemic Believer → aspires &#160;→ Health → sought by &#160;↩" target="details">
<path fill="none" stroke="forestgreen" stroke-width="2" d="M204.16,-143.07C238.94,-149.98 279.94,-158.64 323.36,-169.42"/>
<polygon fill="forestgreen" stroke="forestgreen" stroke-width="2" points="322.7,-172.86 333.25,-171.9 324.4,-166.07 322.7,-172.86"/>
</a>
</g>
<g id="a_PANBESY&#45;3___UNIVERSAL&#45;16&#45;label"><a xlink:href="https://knowhere.atlassian.net/issues/?jql=key+in+(UNIVERSAL-16,PANBESY-3)" xlink:title="Corona Pandemic Believer → aspires &#160;→ Health → sought by &#160;↩" target="details">
<text text-anchor="middle" x="313" y="-154" font-family="Times,serif" font-size="10.00">aspires </text>
</a>
</g>
</g>
<!-- PANBESY&#45;3&#45;&gt;UNIVERSAL&#45;19 -->
<g id="PANBESY&#45;3___UNIVERSAL&#45;19" class="edge">
<title>PANBESY&#45;3&#45;&gt;UNIVERSAL&#45;19</title>
<g id="a_PANBESY&#45;3___UNIVERSAL&#45;19"><a xlink:href="https://knowhere.atlassian.net/issues/?jql=key+in+(UNIVERSAL-19,PANBESY-3)" xlink:title="Corona Pandemic Believer → contributes to &#160;→ Solidarity → receives from &#160;↩" target="details">
<path fill="none" stroke="forestgreen" stroke-width="2" d="M118.96,-143.32C119.01,-149.88 120.35,-157.1 125,-162 135.07,-172.62 166.18,-178.44 196.33,-181.64"/>
<polygon fill="forestgreen" stroke="forestgreen" stroke-width="2" points="196.19,-185.14 206.48,-182.63 196.87,-178.18 196.19,-185.14"/>
</a>
</g>
<g id="a_PANBESY&#45;3___UNIVERSAL&#45;19&#45;label"><a xlink:href="https://knowhere.atlassian.net/issues/?jql=key+in+(UNIVERSAL-19,PANBESY-3)" xlink:title="Corona Pandemic Believer → contributes to &#160;→ Solidarity → receives from &#160;↩" target="details">
<text text-anchor="middle" x="162" y="-154" font-family="Times,serif" font-size="10.00">contributes to </text>
</a>
</g>
</g>
<!-- UNIVERSAL&#45;12 -->
<g id="UNIVERSAL&#45;12" class="node">
<title>UNIVERSAL&#45;12</title>
<g id="a_UNIVERSAL&#45;12"><a xlink:href="https://knowhere.atlassian.net/browse/UNIVERSAL-12" xlink:title=" " target="details">
<path fill="white" stroke="black" d="M312,-83C312,-83 242,-83 242,-83 236.5,-83 231,-77.5 231,-72 231,-72 231,-61 231,-61 231,-55.5 236.5,-50 242,-50 242,-50 312,-50 312,-50 317.5,-50 323,-55.5 323,-61 323,-61 323,-72 323,-72 323,-77.5 317.5,-83 312,-83"/>
<g id="a_UNIVERSAL&#45;12_7"><a xlink:href="https://knowhere.atlassian.net/issues/?jql=type=%22Akteur%22+ORDER+BY+summary" xlink:title=" " target="details">
<image xlink:href="https://knowhere.atlassian.net/secure/viewavatar?size=small&amp;avatarId=11491&amp;avatarType=issuetype" width="16px" height="12px" preserveAspectRatio="xMinYMin meet" x="239" y="-76.5"/>
</a>
</g>
<text text-anchor="start" x="258" y="-63.3" font-family="Helvetica,sans-Serif" font-weight="bold" font-size="14.00">Human</text>
</a>
</g>
</g>
<!-- UNIVERSAL&#45;12&#45;&gt;PANBESY&#45;4 -->
<g id="UNIVERSAL&#45;12___PANBESY&#45;4" class="edge">
<title>UNIVERSAL&#45;12&#45;&gt;PANBESY&#45;4</title>
<g id="a_UNIVERSAL&#45;12___PANBESY&#45;4"><a xlink:href="https://knowhere.atlassian.net/issues/?jql=key+in+(PANBESY-4,UNIVERSAL-12)" xlink:title="Human → generalizes △ → Corona Conspiracy Believer → specializes ▽ ↩" target="details">
<path fill="none" stroke="blue" d="M323.21,-79.62C328.19,-80.81 333.19,-81.96 338,-83 357.86,-87.28 363.04,-87.2 383,-91 410.93,-96.32 441.38,-102.4 468.69,-107.97"/>
<polygon fill="none" stroke="blue" points="468.1,-111.42 478.6,-109.99 469.5,-104.56 468.1,-111.42"/>
</a>
</g>
</g>
<!-- UNIVERSAL&#45;12&#45;&gt;PANBESY&#45;3 -->
<g id="UNIVERSAL&#45;12___PANBESY&#45;3" class="edge">
<title>UNIVERSAL&#45;12&#45;&gt;PANBESY&#45;3</title>
<g id="a_UNIVERSAL&#45;12___PANBESY&#45;3"><a xlink:href="https://knowhere.atlassian.net/issues/?jql=key+in+(PANBESY-3,UNIVERSAL-12)" xlink:title="Human → generalizes △ → Corona Pandemic Believer → specializes ▽ ↩" target="details">
<path fill="none" stroke="blue" d="M235.19,-83.04C215.87,-90.23 192.74,-98.83 172.37,-106.4"/>
<polygon fill="none" stroke="blue" points="171.07,-103.15 162.92,-109.91 173.51,-109.71 171.07,-103.15"/>
</a>
</g>
</g>
<!-- UNIVERSAL&#45;12&#45;&gt;UNIVERSAL&#45;16 -->
<g id="UNIVERSAL&#45;12___UNIVERSAL&#45;16" class="edge">
<title>UNIVERSAL&#45;12&#45;&gt;UNIVERSAL&#45;16</title>
<g id="a_UNIVERSAL&#45;12___UNIVERSAL&#45;16"><a xlink:href="https://knowhere.atlassian.net/issues/?jql=key+in+(UNIVERSAL-16,UNIVERSAL-12)" xlink:title="Human → aspires &#160;→ Health → sought by &#160;↩" target="details">
<path fill="none" stroke="forestgreen" stroke-width="2" d="M313.81,-83.06C326.33,-89.83 339.53,-98.81 349,-110 361.01,-124.2 368.36,-143.91 372.65,-159.63"/>
<polygon fill="forestgreen" stroke="forestgreen" stroke-width="2" points="369.35,-160.9 375.15,-169.77 376.15,-159.22 369.35,-160.9"/>
</a>
</g>
<g id="a_UNIVERSAL&#45;12___UNIVERSAL&#45;16&#45;label"><a xlink:href="https://knowhere.atlassian.net/issues/?jql=key+in+(UNIVERSAL-16,UNIVERSAL-12)" xlink:title="Human → aspires &#160;→ Health → sought by &#160;↩" target="details">
<text text-anchor="middle" x="388" y="-124" font-family="Times,serif" font-size="10.00">aspires </text>
</a>
</g>
</g>
<!-- UNIVERSAL&#45;12&#45;&gt;UNIVERSAL&#45;19 -->
<g id="UNIVERSAL&#45;12___UNIVERSAL&#45;19" class="edge">
<title>UNIVERSAL&#45;12&#45;&gt;UNIVERSAL&#45;19</title>
<g id="a_UNIVERSAL&#45;12___UNIVERSAL&#45;19"><a xlink:href="https://knowhere.atlassian.net/issues/?jql=key+in+(UNIVERSAL-19,UNIVERSAL-12)" xlink:title="Human → contributes to &#160;→ Solidarity → receives from &#160;↩" target="details">
<path fill="none" stroke="forestgreen" stroke-width="2" d="M275.11,-83.41C272.79,-102.96 268.83,-136.39 266.07,-159.65"/>
<polygon fill="forestgreen" stroke="forestgreen" stroke-width="2" points="262.56,-159.5 264.86,-169.84 269.51,-160.32 262.56,-159.5"/>
</a>
</g>
<g id="a_UNIVERSAL&#45;12___UNIVERSAL&#45;19&#45;label"><a xlink:href="https://knowhere.atlassian.net/issues/?jql=key+in+(UNIVERSAL-19,UNIVERSAL-12)" xlink:title="Human → contributes to &#160;→ Solidarity → receives from &#160;↩" target="details">
<text text-anchor="middle" x="309" y="-124" font-family="Times,serif" font-size="10.00">contributes to </text>
</a>
</g>
</g>
</g>
</svg>
