<svg width="157pt" height="960pt" viewBox="0.00 0.00 156.70 959.60" xmlns="http://www.w3.org/2000/svg" xmlns:xlink="http://www.w3.org/1999/xlink">
<g id="graph0" class="graph" transform="scale(1 1) rotate(0) translate(4 955.6)">
<title>Timelines</title>
<g id="a_graph0"><a xlink:title=" ">
<polygon fill="white" stroke="none" points="-4,4 -4,-955.6 152.7,-955.6 152.7,4 -4,4"/>
</a>
</g>

<g id="Istanbul_1969" class="node global_type_Boran type_date_1969">
<title>Istanbul_1969</title>
<path fill="white" stroke="none" d="M60.76,-51.6C60.76,-51.6 23.05,-51.6 23.05,-51.6 19.71,-51.6 16.38,-48.27 16.38,-44.93 16.38,-44.93 16.38,-38.27 16.38,-38.27 16.38,-34.93 19.71,-31.6 23.05,-31.6 23.05,-31.6 60.76,-31.6 60.76,-31.6 64.09,-31.6 67.43,-34.93 67.43,-38.27 67.43,-38.27 67.43,-44.93 67.43,-44.93 67.43,-48.27 64.09,-51.6 60.76,-51.6"/>
<text text-anchor="middle" x="41.9" y="-38.6" font-family="Helvetica,sans-Serif" font-size="10.00">Istanbul</text>
</g>

<g id="Gymnast_1980" class="node global_type_Boran type_date_1980">
<title>Gymnast_1980</title>
<path fill="white" stroke="none" d="M63.25,-86.8C63.25,-86.8 20.56,-86.8 20.56,-86.8 17.23,-86.8 13.89,-83.47 13.89,-80.13 13.89,-80.13 13.89,-73.47 13.89,-73.47 13.89,-70.13 17.23,-66.8 20.56,-66.8 20.56,-66.8 63.25,-66.8 63.25,-66.8 66.58,-66.8 69.91,-70.13 69.91,-73.47 69.91,-73.47 69.91,-80.13 69.91,-80.13 69.91,-83.47 66.58,-86.8 63.25,-86.8"/>
<text text-anchor="middle" x="41.9" y="-73.8" font-family="Helvetica,sans-Serif" font-size="10.00">Gymnast</text>
</g>

<g id="Istanbul_1969___Gymnast_1980" class="edge global_type_Boran">
<title>Istanbul_1969-&gt;Gymnast_1980</title>
<g id="a_Istanbul_1969___Gymnast_1980"><a xlink:title="Boran">
<path fill="none" stroke="#b3de69" stroke-width="2" d="M41.9,-51.32C41.9,-56.24 41.9,-62.36 41.9,-67.25"/>
</a>
</g>
</g>

<g id="GymCoach" class="node global_type_Boran">
<title>GymCoach</title>
<path fill="white" stroke="none" d="M68.25,-118.4C68.25,-118.4 15.56,-118.4 15.56,-118.4 12.22,-118.4 8.89,-115.07 8.89,-111.73 8.89,-111.73 8.89,-105.07 8.89,-105.07 8.89,-101.73 12.22,-98.4 15.56,-98.4 15.56,-98.4 68.25,-98.4 68.25,-98.4 71.59,-98.4 74.92,-101.73 74.92,-105.07 74.92,-105.07 74.92,-111.73 74.92,-111.73 74.92,-115.07 71.59,-118.4 68.25,-118.4"/>
<text text-anchor="middle" x="41.9" y="-105.4" font-family="Helvetica,sans-Serif" font-size="10.00">GymCoach</text>
</g>

<g id="Gymnast_1980___GymCoach" class="edge global_type_Boran">
<title>Gymnast_1980-&gt;GymCoach</title>
<g id="a_Gymnast_1980___GymCoach"><a xlink:title="Boran">
<path fill="none" stroke="#b3de69" stroke-width="2" d="M41.9,-86.52C41.9,-90.34 41.9,-94.81 41.9,-98.64"/>
</a>
</g>
</g>

<g id="Climbing_1989" class="node global_type_Boran type_date_1989">
<title>Climbing_1989</title>
<path fill="white" stroke="none" d="M62.64,-150C62.64,-150 21.17,-150 21.17,-150 17.84,-150 14.5,-146.67 14.5,-143.33 14.5,-143.33 14.5,-136.67 14.5,-136.67 14.5,-133.33 17.84,-130 21.17,-130 21.17,-130 62.64,-130 62.64,-130 65.97,-130 69.31,-133.33 69.31,-136.67 69.31,-136.67 69.31,-143.33 69.31,-143.33 69.31,-146.67 65.97,-150 62.64,-150"/>
<text text-anchor="middle" x="41.9" y="-137" font-family="Helvetica,sans-Serif" font-size="10.00">Climbing</text>
</g>

<g id="GymCoach___Climbing_1989" class="edge global_type_Boran">
<title>GymCoach-&gt;Climbing_1989</title>
<g id="a_GymCoach___Climbing_1989"><a xlink:title="Boran">
<path fill="none" stroke="#b3de69" stroke-width="2" d="M41.9,-118.12C41.9,-121.94 41.9,-126.41 41.9,-130.24"/>
</a>
</g>
</g>

<g id="TUM" class="node global_type_Boran">
<title>TUM</title>
<path fill="white" stroke="none" d="M53.9,-181.6C53.9,-181.6 29.91,-181.6 29.91,-181.6 26.58,-181.6 23.24,-178.27 23.24,-174.93 23.24,-174.93 23.24,-168.27 23.24,-168.27 23.24,-164.93 26.58,-161.6 29.91,-161.6 29.91,-161.6 53.9,-161.6 53.9,-161.6 57.23,-161.6 60.57,-164.93 60.57,-168.27 60.57,-168.27 60.57,-174.93 60.57,-174.93 60.57,-178.27 57.23,-181.6 53.9,-181.6"/>
<text text-anchor="middle" x="41.9" y="-168.6" font-family="Helvetica,sans-Serif" font-size="10.00">TUM</text>
</g>

<g id="Climbing_1989___TUM" class="edge global_type_Boran">
<title>Climbing_1989-&gt;TUM</title>
<g id="a_Climbing_1989___TUM"><a xlink:title="Boran">
<path fill="none" stroke="#b3de69" stroke-width="2" d="M41.9,-149.72C41.9,-153.54 41.9,-158.01 41.9,-161.84"/>
</a>
</g>
</g>

<g id="SpaceMouse" class="node global_type_Boran">
<title>SpaceMouse</title>
<path fill="white" stroke="none" d="M72.61,-209.6C72.61,-209.6 11.2,-209.6 11.2,-209.6 7.87,-209.6 4.53,-206.27 4.53,-202.93 4.53,-202.93 4.53,-196.27 4.53,-196.27 4.53,-192.93 7.87,-189.6 11.2,-189.6 11.2,-189.6 72.61,-189.6 72.61,-189.6 75.94,-189.6 79.27,-192.93 79.27,-196.27 79.27,-196.27 79.27,-202.93 79.27,-202.93 79.27,-206.27 75.94,-209.6 72.61,-209.6"/>
<text text-anchor="middle" x="41.9" y="-196.6" font-family="Helvetica,sans-Serif" font-size="10.00">SpaceMouse</text>
</g>

<g id="TUM___SpaceMouse" class="edge global_type_Boran">
<title>TUM-&gt;SpaceMouse</title>
<g id="a_TUM___SpaceMouse"><a xlink:title="Boran">
<path fill="none" stroke="#b3de69" stroke-width="2" d="M41.9,-181.4C41.9,-184.11 41.9,-187.1 41.9,-189.81"/>
</a>
</g>
</g>

<g id="California_1994" class="node global_type_Boran type_date_1994">
<title>California_1994</title>
<path fill="white" stroke="none" d="M64.48,-241.2C64.48,-241.2 19.33,-241.2 19.33,-241.2 16,-241.2 12.66,-237.87 12.66,-234.53 12.66,-234.53 12.66,-227.87 12.66,-227.87 12.66,-224.53 16,-221.2 19.33,-221.2 19.33,-221.2 64.48,-221.2 64.48,-221.2 67.81,-221.2 71.15,-224.53 71.15,-227.87 71.15,-227.87 71.15,-234.53 71.15,-234.53 71.15,-237.87 67.81,-241.2 64.48,-241.2"/>
<text text-anchor="middle" x="41.9" y="-228.2" font-family="Helvetica,sans-Serif" font-size="10.00">California</text>
</g>

<g id="SpaceMouse___California_1994" class="edge global_type_Boran">
<title>SpaceMouse-&gt;California_1994</title>
<g id="a_SpaceMouse___California_1994"><a xlink:title="Boran">
<path fill="none" stroke="#b3de69" stroke-width="2" d="M41.9,-209.32C41.9,-213.14 41.9,-217.61 41.9,-221.44"/>
</a>
</g>
</g>

<g id="MagicMotion_1995" class="node global_type_Boran type_date_1995">
<title>MagicMotion_1995</title>
<path fill="white" stroke="none" d="M71.43,-276.4C71.43,-276.4 12.38,-276.4 12.38,-276.4 9.05,-276.4 5.71,-273.07 5.71,-269.73 5.71,-269.73 5.71,-263.07 5.71,-263.07 5.71,-259.73 9.05,-256.4 12.38,-256.4 12.38,-256.4 71.43,-256.4 71.43,-256.4 74.76,-256.4 78.09,-259.73 78.09,-263.07 78.09,-263.07 78.09,-269.73 78.09,-269.73 78.09,-273.07 74.76,-276.4 71.43,-276.4"/>
<text text-anchor="middle" x="41.9" y="-263.4" font-family="Helvetica,sans-Serif" font-size="10.00">MagicMotion</text>
</g>

<g id="California_1994___MagicMotion_1995" class="edge global_type_Boran">
<title>California_1994-&gt;MagicMotion_1995</title>
<g id="a_California_1994___MagicMotion_1995"><a xlink:title="Boran">
<path fill="none" stroke="#b3de69" stroke-width="2" d="M41.9,-240.92C41.9,-245.84 41.9,-251.96 41.9,-256.85"/>
</a>
</g>
</g>

<g id="Cybertennis_1996" class="node global_type_Boran type_date_1996">
<title>Cybertennis_1996</title>
<path fill="white" stroke="none" d="M70.1,-311.6C70.1,-311.6 13.71,-311.6 13.71,-311.6 10.38,-311.6 7.04,-308.27 7.04,-304.93 7.04,-304.93 7.04,-298.27 7.04,-298.27 7.04,-294.93 10.38,-291.6 13.71,-291.6 13.71,-291.6 70.1,-291.6 70.1,-291.6 73.43,-291.6 76.76,-294.93 76.76,-298.27 76.76,-298.27 76.76,-304.93 76.76,-304.93 76.76,-308.27 73.43,-311.6 70.1,-311.6"/>
<text text-anchor="middle" x="41.9" y="-298.6" font-family="Helvetica,sans-Serif" font-size="10.00">Cybertennis</text>
</g>

<g id="MagicMotion_1995___Cybertennis_1996" class="edge global_type_Boran">
<title>MagicMotion_1995-&gt;Cybertennis_1996</title>
<g id="a_MagicMotion_1995___Cybertennis_1996"><a xlink:title="Boran">
<path fill="none" stroke="#b3de69" stroke-width="2" d="M41.9,-276.12C41.9,-281.04 41.9,-287.16 41.9,-292.05"/>
</a>
</g>
</g>

<g id="Cancer" class="node global_type_Boran">
<title>Cancer</title>
<path fill="white" stroke="none" d="M59.47,-343.2C59.47,-343.2 24.33,-343.2 24.33,-343.2 21,-343.2 17.67,-339.87 17.67,-336.53 17.67,-336.53 17.67,-329.87 17.67,-329.87 17.67,-326.53 21,-323.2 24.33,-323.2 24.33,-323.2 59.47,-323.2 59.47,-323.2 62.81,-323.2 66.14,-326.53 66.14,-329.87 66.14,-329.87 66.14,-336.53 66.14,-336.53 66.14,-339.87 62.81,-343.2 59.47,-343.2"/>
<text text-anchor="middle" x="41.9" y="-330.2" font-family="Helvetica,sans-Serif" font-size="10.00">Cancer</text>
</g>

<g id="Cybertennis_1996___Cancer" class="edge global_type_Boran">
<title>Cybertennis_1996-&gt;Cancer</title>
<g id="a_Cybertennis_1996___Cancer"><a xlink:title="Boran">
<path fill="none" stroke="#b3de69" stroke-width="2" d="M41.9,-311.32C41.9,-315.14 41.9,-319.61 41.9,-323.44"/>
</a>
</g>
</g>

<g id="BMW_1998" class="node global_type_Boran type_date_1998">
<title>BMW_1998</title>
<path fill="white" stroke="none" d="M55.68,-374.8C55.68,-374.8 28.13,-374.8 28.13,-374.8 24.8,-374.8 21.46,-371.47 21.46,-368.13 21.46,-368.13 21.46,-361.47 21.46,-361.47 21.46,-358.13 24.8,-354.8 28.13,-354.8 28.13,-354.8 55.68,-354.8 55.68,-354.8 59.01,-354.8 62.34,-358.13 62.34,-361.47 62.34,-361.47 62.34,-368.13 62.34,-368.13 62.34,-371.47 59.01,-374.8 55.68,-374.8"/>
<text text-anchor="middle" x="41.9" y="-361.8" font-family="Helvetica,sans-Serif" font-size="10.00">BMW</text>
</g>

<g id="Cancer___BMW_1998" class="edge global_type_Boran">
<title>Cancer-&gt;BMW_1998</title>
<g id="a_Cancer___BMW_1998"><a xlink:title="Boran">
<path fill="none" stroke="#b3de69" stroke-width="2" d="M41.9,-342.92C41.9,-346.74 41.9,-351.21 41.9,-355.04"/>
</a>
</g>
</g>

<g id="FoundInSpace_1999" class="node global_type_Boran type_date_1999">
<title>FoundInSpace_1999</title>
<path fill="white" stroke="none" d="M75.79,-410C75.79,-410 8.02,-410 8.02,-410 4.69,-410 1.35,-406.67 1.35,-403.33 1.35,-403.33 1.35,-396.67 1.35,-396.67 1.35,-393.33 4.69,-390 8.02,-390 8.02,-390 75.79,-390 75.79,-390 79.12,-390 82.45,-393.33 82.45,-396.67 82.45,-396.67 82.45,-403.33 82.45,-403.33 82.45,-406.67 79.12,-410 75.79,-410"/>
<text text-anchor="middle" x="41.9" y="-397" font-family="Helvetica,sans-Serif" font-size="10.00">FoundInSpace</text>
</g>

<g id="BMW_1998___FoundInSpace_1999" class="edge global_type_Boran">
<title>BMW_1998-&gt;FoundInSpace_1999</title>
<g id="a_BMW_1998___FoundInSpace_1999"><a xlink:title="Boran">
<path fill="none" stroke="#b3de69" stroke-width="2" d="M41.9,-374.52C41.9,-379.44 41.9,-385.56 41.9,-390.45"/>
</a>
</g>
</g>

<g id="ITIL_2002" class="node global_type_Boran type_date_2002">
<title>ITIL_2002</title>
<path fill="white" stroke="none" d="M51.96,-445.2C51.96,-445.2 31.84,-445.2 31.84,-445.2 28.51,-445.2 25.18,-441.87 25.18,-438.53 25.18,-438.53 25.18,-431.87 25.18,-431.87 25.18,-428.53 28.51,-425.2 31.84,-425.2 31.84,-425.2 51.96,-425.2 51.96,-425.2 55.3,-425.2 58.63,-428.53 58.63,-431.87 58.63,-431.87 58.63,-438.53 58.63,-438.53 58.63,-441.87 55.3,-445.2 51.96,-445.2"/>
<text text-anchor="middle" x="41.9" y="-432.2" font-family="Helvetica,sans-Serif" font-size="10.00">ITIL</text>
</g>

<g id="FoundInSpace_1999___ITIL_2002" class="edge global_type_Boran">
<title>FoundInSpace_1999-&gt;ITIL_2002</title>
<g id="a_FoundInSpace_1999___ITIL_2002"><a xlink:title="Boran">
<path fill="none" stroke="#b3de69" stroke-width="2" d="M41.9,-409.72C41.9,-414.64 41.9,-420.76 41.9,-425.65"/>
</a>
</g>
</g>

<g id="ITLExpert_2007" class="node global_type_Boran type_date_2007">
<title>ITLExpert_2007</title>
<path fill="white" stroke="none" d="M65.09,-480.4C65.09,-480.4 18.72,-480.4 18.72,-480.4 15.39,-480.4 12.05,-477.07 12.05,-473.73 12.05,-473.73 12.05,-467.07 12.05,-467.07 12.05,-463.73 15.39,-460.4 18.72,-460.4 18.72,-460.4 65.09,-460.4 65.09,-460.4 68.42,-460.4 71.75,-463.73 71.75,-467.07 71.75,-467.07 71.75,-473.73 71.75,-473.73 71.75,-477.07 68.42,-480.4 65.09,-480.4"/>
<text text-anchor="middle" x="41.9" y="-467.4" font-family="Helvetica,sans-Serif" font-size="10.00">ITLExpert</text>
</g>

<g id="ITIL_2002___ITLExpert_2007" class="edge global_type_Boran">
<title>ITIL_2002-&gt;ITLExpert_2007</title>
<g id="a_ITIL_2002___ITLExpert_2007"><a xlink:title="Boran">
<path fill="none" stroke="#b3de69" stroke-width="2" d="M41.9,-444.92C41.9,-449.84 41.9,-455.96 41.9,-460.85"/>
</a>
</g>
</g>

<g id="ClimbingCoach" class="node global_type_Boran">
<title>ClimbingCoach</title>
<path fill="white" stroke="none" d="M77.04,-512C77.04,-512 6.76,-512 6.76,-512 3.43,-512 0.1,-508.67 0.1,-505.33 0.1,-505.33 0.1,-498.67 0.1,-498.67 0.1,-495.33 3.43,-492 6.76,-492 6.76,-492 77.04,-492 77.04,-492 80.38,-492 83.71,-495.33 83.71,-498.67 83.71,-498.67 83.71,-505.33 83.71,-505.33 83.71,-508.67 80.38,-512 77.04,-512"/>
<text text-anchor="middle" x="41.9" y="-499" font-family="Helvetica,sans-Serif" font-size="10.00">ClimbingCoach</text>
</g>

<g id="ITLExpert_2007___ClimbingCoach" class="edge global_type_Boran">
<title>ITLExpert_2007-&gt;ClimbingCoach</title>
<g id="a_ITLExpert_2007___ClimbingCoach"><a xlink:title="Boran">
<path fill="none" stroke="#b3de69" stroke-width="2" d="M41.9,-480.12C41.9,-483.94 41.9,-488.41 41.9,-492.24"/>
</a>
</g>
</g>

<g id="QClimbing" class="node global_type_Boran">
<title>QClimbing</title>
<path fill="white" stroke="none" d="M66.42,-540C66.42,-540 17.39,-540 17.39,-540 14.06,-540 10.72,-536.67 10.72,-533.33 10.72,-533.33 10.72,-526.67 10.72,-526.67 10.72,-523.33 14.06,-520 17.39,-520 17.39,-520 66.42,-520 66.42,-520 69.75,-520 73.08,-523.33 73.08,-526.67 73.08,-526.67 73.08,-533.33 73.08,-533.33 73.08,-536.67 69.75,-540 66.42,-540"/>
<text text-anchor="middle" x="41.9" y="-527" font-family="Helvetica,sans-Serif" font-size="10.00">QClimbing</text>
</g>

<g id="ClimbingCoach___QClimbing" class="edge global_type_Boran">
<title>ClimbingCoach-&gt;QClimbing</title>
<g id="a_ClimbingCoach___QClimbing"><a xlink:title="Boran">
<path fill="none" stroke="#b3de69" stroke-width="2" d="M41.9,-511.8C41.9,-514.51 41.9,-517.5 41.9,-520.21"/>
</a>
</g>
</g>

<g id="SAP_2011" class="node global_type_Boran type_date_2011">
<title>SAP_2011</title>
<path fill="white" stroke="none" d="M53.25,-571.6C53.25,-571.6 30.56,-571.6 30.56,-571.6 27.23,-571.6 23.89,-568.27 23.89,-564.93 23.89,-564.93 23.89,-558.27 23.89,-558.27 23.89,-554.93 27.23,-551.6 30.56,-551.6 30.56,-551.6 53.25,-551.6 53.25,-551.6 56.58,-551.6 59.91,-554.93 59.91,-558.27 59.91,-558.27 59.91,-564.93 59.91,-564.93 59.91,-568.27 56.58,-571.6 53.25,-571.6"/>
<text text-anchor="middle" x="41.9" y="-558.6" font-family="Helvetica,sans-Serif" font-size="10.00">SAP</text>
</g>

<g id="QClimbing___SAP_2011" class="edge global_type_Boran">
<title>QClimbing-&gt;SAP_2011</title>
<g id="a_QClimbing___SAP_2011"><a xlink:title="Boran">
<path fill="none" stroke="#b3de69" stroke-width="2" d="M41.9,-539.72C41.9,-543.54 41.9,-548.01 41.9,-551.84"/>
</a>
</g>
</g>

<g id="Paragliding_2012" class="node global_type_Boran type_date_2012">
<title>Paragliding_2012</title>
<path fill="white" stroke="none" d="M68.27,-606.8C68.27,-606.8 15.54,-606.8 15.54,-606.8 12.2,-606.8 8.87,-603.47 8.87,-600.13 8.87,-600.13 8.87,-593.47 8.87,-593.47 8.87,-590.13 12.2,-586.8 15.54,-586.8 15.54,-586.8 68.27,-586.8 68.27,-586.8 71.6,-586.8 74.94,-590.13 74.94,-593.47 74.94,-593.47 74.94,-600.13 74.94,-600.13 74.94,-603.47 71.6,-606.8 68.27,-606.8"/>
<text text-anchor="middle" x="41.9" y="-593.8" font-family="Helvetica,sans-Serif" font-size="10.00">Paragliding</text>
</g>

<g id="SAP_2011___Paragliding_2012" class="edge global_type_Boran">
<title>SAP_2011-&gt;Paragliding_2012</title>
<g id="a_SAP_2011___Paragliding_2012"><a xlink:title="Boran">
<path fill="none" stroke="#b3de69" stroke-width="2" d="M41.9,-571.32C41.9,-576.24 41.9,-582.36 41.9,-587.25"/>
</a>
</g>
</g>

<g id="AlpsXing" class="node global_type_Boran">
<title>AlpsXing</title>
<path fill="white" stroke="none" d="M63.21,-638.4C63.21,-638.4 20.6,-638.4 20.6,-638.4 17.27,-638.4 13.93,-635.07 13.93,-631.73 13.93,-631.73 13.93,-625.07 13.93,-625.07 13.93,-621.73 17.27,-618.4 20.6,-618.4 20.6,-618.4 63.21,-618.4 63.21,-618.4 66.54,-618.4 69.87,-621.73 69.87,-625.07 69.87,-625.07 69.87,-631.73 69.87,-631.73 69.87,-635.07 66.54,-638.4 63.21,-638.4"/>
<text text-anchor="middle" x="41.9" y="-625.4" font-family="Helvetica,sans-Serif" font-size="10.00">AlpsXing</text>
</g>

<g id="Paragliding_2012___AlpsXing" class="edge global_type_Boran">
<title>Paragliding_2012-&gt;AlpsXing</title>
<g id="a_Paragliding_2012___AlpsXing"><a xlink:title="Boran">
<path fill="none" stroke="#b3de69" stroke-width="2" d="M41.9,-606.52C41.9,-610.34 41.9,-614.81 41.9,-618.64"/>
</a>
</g>
</g>

<g id="TandemPilot_2015" class="node global_type_Boran type_date_2015">
<title>TandemPilot_2015</title>
<path fill="white" stroke="none" d="M71.37,-670C71.37,-670 12.43,-670 12.43,-670 9.1,-670 5.77,-666.67 5.77,-663.33 5.77,-663.33 5.77,-656.67 5.77,-656.67 5.77,-653.33 9.1,-650 12.43,-650 12.43,-650 71.37,-650 71.37,-650 74.71,-650 78.04,-653.33 78.04,-656.67 78.04,-656.67 78.04,-663.33 78.04,-663.33 78.04,-666.67 74.71,-670 71.37,-670"/>
<text text-anchor="middle" x="41.9" y="-657" font-family="Helvetica,sans-Serif" font-size="10.00">TandemPilot</text>
</g>

<g id="AlpsXing___TandemPilot_2015" class="edge global_type_Boran">
<title>AlpsXing-&gt;TandemPilot_2015</title>
<g id="a_AlpsXing___TandemPilot_2015"><a xlink:title="Boran">
<path fill="none" stroke="#b3de69" stroke-width="2" d="M41.9,-638.12C41.9,-641.94 41.9,-646.41 41.9,-650.24"/>
</a>
</g>
</g>

<g id="Norway_2016" class="node global_type_Boran type_date_2016">
<title>Norway_2016</title>
<path fill="white" stroke="none" d="M60.13,-705.2C60.13,-705.2 23.67,-705.2 23.67,-705.2 20.34,-705.2 17.01,-701.87 17.01,-698.53 17.01,-698.53 17.01,-691.87 17.01,-691.87 17.01,-688.53 20.34,-685.2 23.67,-685.2 23.67,-685.2 60.13,-685.2 60.13,-685.2 63.47,-685.2 66.8,-688.53 66.8,-691.87 66.8,-691.87 66.8,-698.53 66.8,-698.53 66.8,-701.87 63.47,-705.2 60.13,-705.2"/>
<text text-anchor="middle" x="41.9" y="-692.2" font-family="Helvetica,sans-Serif" font-size="10.00">Norway</text>
</g>

<g id="TandemPilot_2015___Norway_2016" class="edge global_type_Boran">
<title>TandemPilot_2015-&gt;Norway_2016</title>
<g id="a_TandemPilot_2015___Norway_2016"><a xlink:title="Boran">
<path fill="none" stroke="#b3de69" stroke-width="2" d="M41.9,-669.72C41.9,-674.64 41.9,-680.76 41.9,-685.65"/>
</a>
</g>
</g>

<g id="FlightInstructor_2017" class="node global_type_Boran type_date_2017">
<title>FlightInstructor_2017</title>
<path fill="white" stroke="none" d="M76.37,-740.4C76.37,-740.4 7.44,-740.4 7.44,-740.4 4.1,-740.4 0.77,-737.07 0.77,-733.73 0.77,-733.73 0.77,-727.07 0.77,-727.07 0.77,-723.73 4.1,-720.4 7.44,-720.4 7.44,-720.4 76.37,-720.4 76.37,-720.4 79.7,-720.4 83.04,-723.73 83.04,-727.07 83.04,-727.07 83.04,-733.73 83.04,-733.73 83.04,-737.07 79.7,-740.4 76.37,-740.4"/>
<text text-anchor="middle" x="41.9" y="-727.4" font-family="Helvetica,sans-Serif" font-size="10.00">FlightInstructor</text>
</g>

<g id="Norway_2016___FlightInstructor_2017" class="edge global_type_Boran">
<title>Norway_2016-&gt;FlightInstructor_2017</title>
<g id="a_Norway_2016___FlightInstructor_2017"><a xlink:title="Boran">
<path fill="none" stroke="#b3de69" stroke-width="2" d="M41.9,-704.92C41.9,-709.84 41.9,-715.96 41.9,-720.85"/>
</a>
</g>
</g>

<g id="ValueMaps_2019" class="node global_type_Boran type_date_2019">
<title>ValueMaps_2019</title>
<path fill="white" stroke="none" d="M68.27,-775.6C68.27,-775.6 15.54,-775.6 15.54,-775.6 12.21,-775.6 8.87,-772.27 8.87,-768.93 8.87,-768.93 8.87,-762.27 8.87,-762.27 8.87,-758.93 12.21,-755.6 15.54,-755.6 15.54,-755.6 68.27,-755.6 68.27,-755.6 71.6,-755.6 74.93,-758.93 74.93,-762.27 74.93,-762.27 74.93,-768.93 74.93,-768.93 74.93,-772.27 71.6,-775.6 68.27,-775.6"/>
<text text-anchor="middle" x="41.9" y="-762.6" font-family="Helvetica,sans-Serif" font-size="10.00">ValueMaps</text>
</g>

<g id="FlightInstructor_2017___ValueMaps_2019" class="edge global_type_Boran">
<title>FlightInstructor_2017-&gt;ValueMaps_2019</title>
<g id="a_FlightInstructor_2017___ValueMaps_2019"><a xlink:title="Boran">
<path fill="none" stroke="#b3de69" stroke-width="2" d="M41.9,-740.12C41.9,-745.04 41.9,-751.16 41.9,-756.05"/>
</a>
</g>
</g>

<g id="Sweden" class="node global_type_Boran">
<title>Sweden</title>
<path fill="white" stroke="none" d="M61.38,-807.2C61.38,-807.2 22.43,-807.2 22.43,-807.2 19.1,-807.2 15.77,-803.87 15.77,-800.53 15.77,-800.53 15.77,-793.87 15.77,-793.87 15.77,-790.53 19.1,-787.2 22.43,-787.2 22.43,-787.2 61.38,-787.2 61.38,-787.2 64.71,-787.2 68.04,-790.53 68.04,-793.87 68.04,-793.87 68.04,-800.53 68.04,-800.53 68.04,-803.87 64.71,-807.2 61.38,-807.2"/>
<text text-anchor="middle" x="41.9" y="-794.2" font-family="Helvetica,sans-Serif" font-size="10.00">Sweden</text>
</g>

<g id="ValueMaps_2019___Sweden" class="edge global_type_Boran">
<title>ValueMaps_2019-&gt;Sweden</title>
<g id="a_ValueMaps_2019___Sweden"><a xlink:title="Boran">
<path fill="none" stroke="#b3de69" stroke-width="2" d="M41.9,-775.32C41.9,-779.14 41.9,-783.61 41.9,-787.44"/>
</a>
</g>
</g>

<g id="Sailing_2022" class="node global_type_Boran type_date_2022">
<title>Sailing_2022</title>
<path fill="white" stroke="none" d="M58.26,-838.8C58.26,-838.8 25.55,-838.8 25.55,-838.8 22.22,-838.8 18.88,-835.47 18.88,-832.13 18.88,-832.13 18.88,-825.47 18.88,-825.47 18.88,-822.13 22.22,-818.8 25.55,-818.8 25.55,-818.8 58.26,-818.8 58.26,-818.8 61.59,-818.8 64.92,-822.13 64.92,-825.47 64.92,-825.47 64.92,-832.13 64.92,-832.13 64.92,-835.47 61.59,-838.8 58.26,-838.8"/>
<text text-anchor="middle" x="41.9" y="-825.8" font-family="Helvetica,sans-Serif" font-size="10.00">Sailing</text>
</g>

<g id="Sweden___Sailing_2022" class="edge global_type_Boran">
<title>Sweden-&gt;Sailing_2022</title>
<g id="a_Sweden___Sailing_2022"><a xlink:title="Boran">
<path fill="none" stroke="#b3de69" stroke-width="2" d="M41.9,-806.92C41.9,-810.74 41.9,-815.21 41.9,-819.04"/>
</a>
</g>
</g>

<g id="Bretagne" class="node global_type_Boran">
<title>Bretagne</title>
<path fill="white" stroke="none" d="M63.32,-870.4C63.32,-870.4 20.48,-870.4 20.48,-870.4 17.15,-870.4 13.82,-867.07 13.82,-863.73 13.82,-863.73 13.82,-857.07 13.82,-857.07 13.82,-853.73 17.15,-850.4 20.48,-850.4 20.48,-850.4 63.32,-850.4 63.32,-850.4 66.66,-850.4 69.99,-853.73 69.99,-857.07 69.99,-857.07 69.99,-863.73 69.99,-863.73 69.99,-867.07 66.66,-870.4 63.32,-870.4"/>
<text text-anchor="middle" x="41.9" y="-857.4" font-family="Helvetica,sans-Serif" font-size="10.00">Bretagne</text>
</g>

<g id="Sailing_2022___Bretagne" class="edge global_type_Boran">
<title>Sailing_2022-&gt;Bretagne</title>
<g id="a_Sailing_2022___Bretagne"><a xlink:title="Boran">
<path fill="none" stroke="#b3de69" stroke-width="2" d="M41.9,-838.52C41.9,-842.34 41.9,-846.81 41.9,-850.64"/>
</a>
</g>
</g>

<g id="Timelines" class="node global_type_Boran">
<title>Timelines</title>
<path fill="white" stroke="none" d="M64.53,-898.4C64.53,-898.4 19.28,-898.4 19.28,-898.4 15.95,-898.4 12.62,-895.07 12.62,-891.73 12.62,-891.73 12.62,-885.07 12.62,-885.07 12.62,-881.73 15.95,-878.4 19.28,-878.4 19.28,-878.4 64.53,-878.4 64.53,-878.4 67.86,-878.4 71.19,-881.73 71.19,-885.07 71.19,-885.07 71.19,-891.73 71.19,-891.73 71.19,-895.07 67.86,-898.4 64.53,-898.4"/>
<text text-anchor="middle" x="41.9" y="-885.4" font-family="Helvetica,sans-Serif" font-size="10.00">Timelines</text>
</g>

<g id="Bretagne___Timelines" class="edge global_type_Boran">
<title>Bretagne-&gt;Timelines</title>
<g id="a_Bretagne___Timelines"><a xlink:title="Boran">
<path fill="none" stroke="#b3de69" stroke-width="2" d="M41.9,-870.2C41.9,-872.91 41.9,-875.9 41.9,-878.61"/>
</a>
</g>
</g>

<g id="Morocco_2024" class="node global_type_Boran type_date_2024">
<title>Morocco_2024</title>
<path fill="white" stroke="none" d="M62.58,-930C62.58,-930 21.22,-930 21.22,-930 17.89,-930 14.56,-926.67 14.56,-923.33 14.56,-923.33 14.56,-916.67 14.56,-916.67 14.56,-913.33 17.89,-910 21.22,-910 21.22,-910 62.58,-910 62.58,-910 65.92,-910 69.25,-913.33 69.25,-916.67 69.25,-916.67 69.25,-923.33 69.25,-923.33 69.25,-926.67 65.92,-930 62.58,-930"/>
<text text-anchor="middle" x="41.9" y="-917" font-family="Helvetica,sans-Serif" font-size="10.00">Morocco</text>
</g>

<g id="Timelines___Morocco_2024" class="edge global_type_Boran">
<title>Timelines-&gt;Morocco_2024</title>
<g id="a_Timelines___Morocco_2024"><a xlink:title="Boran">
<path fill="none" stroke="#b3de69" stroke-width="2" d="M41.9,-898.12C41.9,-901.94 41.9,-906.41 41.9,-910.24"/>
</a>
</g>
</g>


<g id="Morocco_2024___Boran_future" class="edge global_type_Boran _future">
<title>Morocco_2024-&gt;Boran_future</title>
<g id="a_Morocco_2024___Boran_future"><a xlink:title="Boran">
<path fill="none" stroke="#b3de69" stroke-width="2" d="M41.9,-929.86C41.9,-930.02 41.9,-930.18 41.9,-930.35"/>
<polygon fill="#b3de69" stroke="#b3de69" stroke-width="2" points="38.4,-928.5 41.9,-938.5 45.4,-928.5 38.4,-928.5"/>
</a>
</g>
</g>

<g id="Boran" class="node global_type_Boran">
<title>Boran</title>
<path fill="white" stroke="#b3de69" d="M56.42,-20C56.42,-20 27.38,-20 27.38,-20 24.05,-20 20.72,-16.67 20.72,-13.33 20.72,-13.33 20.72,-6.67 20.72,-6.67 20.72,-3.33 24.05,0 27.38,0 27.38,0 56.42,0 56.42,0 59.76,0 63.09,-3.33 63.09,-6.67 63.09,-6.67 63.09,-13.33 63.09,-13.33 63.09,-16.67 59.76,-20 56.42,-20"/>
<text text-anchor="middle" x="41.9" y="-7" font-family="Helvetica,sans-Serif" font-size="10.00">Boran</text>
</g>

<g id="Boran___Istanbul_1969" class="edge global_type_Boran">
<title>Boran-&gt;Istanbul_1969</title>
<g id="a_Boran___Istanbul_1969"><a xlink:title="Boran">
<path fill="none" stroke="#b3de69" d="M41.9,-30.07C41.9,-30.66 41.9,-31.24 41.9,-31.8"/>
<polygon fill="#b3de69" stroke="#b3de69" points="41.9,-30.37 46.4,-20.37 41.9,-25.37 41.9,-20.37 41.9,-20.37 41.9,-20.37 41.9,-25.37 37.4,-20.37 41.9,-30.37 41.9,-30.37"/>
</a>
</g>
</g>

<g id="time_entity" class="node">
<title>time_entity</title>
<path fill="none" stroke="lightgrey" d="M135.46,-20C135.46,-20 110.35,-20 110.35,-20 107.01,-20 103.68,-16.67 103.68,-13.33 103.68,-13.33 103.68,-6.67 103.68,-6.67 103.68,-3.33 107.01,0 110.35,0 110.35,0 135.46,0 135.46,0 138.79,0 142.13,-3.33 142.13,-6.67 142.13,-6.67 142.13,-13.33 142.13,-13.33 142.13,-16.67 138.79,-20 135.46,-20"/>
<text text-anchor="middle" x="122.9" y="-7" font-family="Helvetica,sans-Serif" font-size="10.00" fill="lightgrey">Time</text>
</g>

<g id="1969" class="node type_date_1969">
<title>1969</title>
<path fill="white" stroke="none" d="M139.37,-55.3C139.37,-55.3 106.44,-55.3 106.44,-55.3 101.88,-55.3 97.31,-50.73 97.31,-46.17 97.31,-46.17 97.31,-37.03 97.31,-37.03 97.31,-32.47 101.88,-27.9 106.44,-27.9 106.44,-27.9 139.37,-27.9 139.37,-27.9 143.93,-27.9 148.5,-32.47 148.5,-37.03 148.5,-37.03 148.5,-46.17 148.5,-46.17 148.5,-50.73 143.93,-55.3 139.37,-55.3"/>
<text text-anchor="start" x="105.11" y="-36.8" font-family="Helvetica,sans-Serif" font-size="16.00">1969</text>
</g>

<g id="time_entity___1969" class="edge">
<title>time_entity-&gt;1969</title>
<path fill="none" stroke="lightgrey" stroke-width="2" d="M122.9,-20.37C122.9,-22.8 122.9,-25.47 122.9,-28.05"/>
</g>

<g id="1980" class="node type_date_1980">
<title>1980</title>
<path fill="white" stroke="none" d="M139.37,-90.5C139.37,-90.5 106.44,-90.5 106.44,-90.5 101.88,-90.5 97.31,-85.93 97.31,-81.37 97.31,-81.37 97.31,-72.23 97.31,-72.23 97.31,-67.67 101.88,-63.1 106.44,-63.1 106.44,-63.1 139.37,-63.1 139.37,-63.1 143.93,-63.1 148.5,-67.67 148.5,-72.23 148.5,-72.23 148.5,-81.37 148.5,-81.37 148.5,-85.93 143.93,-90.5 139.37,-90.5"/>
<text text-anchor="start" x="105.11" y="-72" font-family="Helvetica,sans-Serif" font-size="16.00">1980</text>
</g>

<g id="1969___1980" class="edge">
<title>1969-&gt;1980</title>
<path fill="none" stroke="lightgrey" stroke-width="2" d="M122.9,-54.96C122.9,-57.76 122.9,-60.74 122.9,-63.54"/>
</g>

<g id="1989" class="node type_date_1989">
<title>1989</title>
<path fill="white" stroke="none" d="M139.37,-153.7C139.37,-153.7 106.44,-153.7 106.44,-153.7 101.88,-153.7 97.31,-149.13 97.31,-144.57 97.31,-144.57 97.31,-135.43 97.31,-135.43 97.31,-130.87 101.88,-126.3 106.44,-126.3 106.44,-126.3 139.37,-126.3 139.37,-126.3 143.93,-126.3 148.5,-130.87 148.5,-135.43 148.5,-135.43 148.5,-144.57 148.5,-144.57 148.5,-149.13 143.93,-153.7 139.37,-153.7"/>
<text text-anchor="start" x="105.11" y="-135.2" font-family="Helvetica,sans-Serif" font-size="16.00">1989</text>
</g>

<g id="1980___1989" class="edge">
<title>1980-&gt;1989</title>
<path fill="none" stroke="lightgrey" stroke-width="2" d="M122.9,-90.48C122.9,-100.98 122.9,-115.84 122.9,-126.34"/>
</g>

<g id="1994" class="node type_date_1994">
<title>1994</title>
<path fill="white" stroke="none" d="M139.37,-244.9C139.37,-244.9 106.44,-244.9 106.44,-244.9 101.88,-244.9 97.31,-240.33 97.31,-235.77 97.31,-235.77 97.31,-226.63 97.31,-226.63 97.31,-222.07 101.88,-217.5 106.44,-217.5 106.44,-217.5 139.37,-217.5 139.37,-217.5 143.93,-217.5 148.5,-222.07 148.5,-226.63 148.5,-226.63 148.5,-235.77 148.5,-235.77 148.5,-240.33 143.93,-244.9 139.37,-244.9"/>
<text text-anchor="start" x="105.11" y="-226.4" font-family="Helvetica,sans-Serif" font-size="16.00">1994</text>
</g>

<g id="1989___1994" class="edge">
<title>1989-&gt;1994</title>
<path fill="none" stroke="lightgrey" stroke-width="2" d="M122.9,-153.4C122.9,-170.35 122.9,-200.57 122.9,-217.61"/>
</g>

<g id="1995" class="node type_date_1995">
<title>1995</title>
<path fill="white" stroke="none" d="M139.37,-280.1C139.37,-280.1 106.44,-280.1 106.44,-280.1 101.88,-280.1 97.31,-275.53 97.31,-270.97 97.31,-270.97 97.31,-261.83 97.31,-261.83 97.31,-257.27 101.88,-252.7 106.44,-252.7 106.44,-252.7 139.37,-252.7 139.37,-252.7 143.93,-252.7 148.5,-257.27 148.5,-261.83 148.5,-261.83 148.5,-270.97 148.5,-270.97 148.5,-275.53 143.93,-280.1 139.37,-280.1"/>
<text text-anchor="start" x="105.11" y="-261.6" font-family="Helvetica,sans-Serif" font-size="16.00">1995</text>
</g>

<g id="1994___1995" class="edge">
<title>1994-&gt;1995</title>
<path fill="none" stroke="lightgrey" stroke-width="2" d="M122.9,-244.56C122.9,-247.36 122.9,-250.34 122.9,-253.14"/>
</g>

<g id="1996" class="node type_date_1996">
<title>1996</title>
<path fill="white" stroke="none" d="M139.37,-315.3C139.37,-315.3 106.44,-315.3 106.44,-315.3 101.88,-315.3 97.31,-310.73 97.31,-306.17 97.31,-306.17 97.31,-297.03 97.31,-297.03 97.31,-292.47 101.88,-287.9 106.44,-287.9 106.44,-287.9 139.37,-287.9 139.37,-287.9 143.93,-287.9 148.5,-292.47 148.5,-297.03 148.5,-297.03 148.5,-306.17 148.5,-306.17 148.5,-310.73 143.93,-315.3 139.37,-315.3"/>
<text text-anchor="start" x="105.11" y="-296.8" font-family="Helvetica,sans-Serif" font-size="16.00">1996</text>
</g>

<g id="1995___1996" class="edge">
<title>1995-&gt;1996</title>
<path fill="none" stroke="lightgrey" stroke-width="2" d="M122.9,-279.76C122.9,-282.56 122.9,-285.54 122.9,-288.34"/>
</g>

<g id="1998" class="node type_date_1998">
<title>1998</title>
<path fill="white" stroke="none" d="M139.37,-378.5C139.37,-378.5 106.44,-378.5 106.44,-378.5 101.88,-378.5 97.31,-373.93 97.31,-369.37 97.31,-369.37 97.31,-360.23 97.31,-360.23 97.31,-355.67 101.88,-351.1 106.44,-351.1 106.44,-351.1 139.37,-351.1 139.37,-351.1 143.93,-351.1 148.5,-355.67 148.5,-360.23 148.5,-360.23 148.5,-369.37 148.5,-369.37 148.5,-373.93 143.93,-378.5 139.37,-378.5"/>
<text text-anchor="start" x="105.11" y="-360" font-family="Helvetica,sans-Serif" font-size="16.00">1998</text>
</g>

<g id="1996___1998" class="edge">
<title>1996-&gt;1998</title>
<path fill="none" stroke="lightgrey" stroke-width="2" d="M122.9,-315.28C122.9,-325.78 122.9,-340.64 122.9,-351.14"/>
</g>

<g id="1999" class="node type_date_1999">
<title>1999</title>
<path fill="white" stroke="none" d="M139.37,-413.7C139.37,-413.7 106.44,-413.7 106.44,-413.7 101.88,-413.7 97.31,-409.13 97.31,-404.57 97.31,-404.57 97.31,-395.43 97.31,-395.43 97.31,-390.87 101.88,-386.3 106.44,-386.3 106.44,-386.3 139.37,-386.3 139.37,-386.3 143.93,-386.3 148.5,-390.87 148.5,-395.43 148.5,-395.43 148.5,-404.57 148.5,-404.57 148.5,-409.13 143.93,-413.7 139.37,-413.7"/>
<text text-anchor="start" x="105.11" y="-395.2" font-family="Helvetica,sans-Serif" font-size="16.00">1999</text>
</g>

<g id="1998___1999" class="edge">
<title>1998-&gt;1999</title>
<path fill="none" stroke="lightgrey" stroke-width="2" d="M122.9,-378.16C122.9,-380.96 122.9,-383.94 122.9,-386.74"/>
</g>

<g id="2002" class="node type_date_2002">
<title>2002</title>
<path fill="white" stroke="none" d="M139.37,-448.9C139.37,-448.9 106.44,-448.9 106.44,-448.9 101.88,-448.9 97.31,-444.33 97.31,-439.77 97.31,-439.77 97.31,-430.63 97.31,-430.63 97.31,-426.07 101.88,-421.5 106.44,-421.5 106.44,-421.5 139.37,-421.5 139.37,-421.5 143.93,-421.5 148.5,-426.07 148.5,-430.63 148.5,-430.63 148.5,-439.77 148.5,-439.77 148.5,-444.33 143.93,-448.9 139.37,-448.9"/>
<text text-anchor="start" x="105.11" y="-430.4" font-family="Helvetica,sans-Serif" font-size="16.00">2002</text>
</g>

<g id="1999___2002" class="edge">
<title>1999-&gt;2002</title>
<path fill="none" stroke="lightgrey" stroke-width="2" d="M122.9,-413.36C122.9,-416.16 122.9,-419.14 122.9,-421.94"/>
</g>

<g id="2007" class="node type_date_2007">
<title>2007</title>
<path fill="white" stroke="none" d="M139.37,-484.1C139.37,-484.1 106.44,-484.1 106.44,-484.1 101.88,-484.1 97.31,-479.53 97.31,-474.97 97.31,-474.97 97.31,-465.83 97.31,-465.83 97.31,-461.27 101.88,-456.7 106.44,-456.7 106.44,-456.7 139.37,-456.7 139.37,-456.7 143.93,-456.7 148.5,-461.27 148.5,-465.83 148.5,-465.83 148.5,-474.97 148.5,-474.97 148.5,-479.53 143.93,-484.1 139.37,-484.1"/>
<text text-anchor="start" x="105.11" y="-465.6" font-family="Helvetica,sans-Serif" font-size="16.00">2007</text>
</g>

<g id="2002___2007" class="edge">
<title>2002-&gt;2007</title>
<path fill="none" stroke="lightgrey" stroke-width="2" d="M122.9,-448.56C122.9,-451.36 122.9,-454.34 122.9,-457.14"/>
</g>

<g id="2011" class="node type_date_2011">
<title>2011</title>
<path fill="white" stroke="none" d="M139.37,-575.3C139.37,-575.3 106.44,-575.3 106.44,-575.3 101.88,-575.3 97.31,-570.73 97.31,-566.17 97.31,-566.17 97.31,-557.03 97.31,-557.03 97.31,-552.47 101.88,-547.9 106.44,-547.9 106.44,-547.9 139.37,-547.9 139.37,-547.9 143.93,-547.9 148.5,-552.47 148.5,-557.03 148.5,-557.03 148.5,-566.17 148.5,-566.17 148.5,-570.73 143.93,-575.3 139.37,-575.3"/>
<text text-anchor="start" x="105.11" y="-556.8" font-family="Helvetica,sans-Serif" font-size="16.00">2011</text>
</g>

<g id="2007___2011" class="edge">
<title>2007-&gt;2011</title>
<path fill="none" stroke="lightgrey" stroke-width="2" d="M122.9,-483.8C122.9,-500.75 122.9,-530.97 122.9,-548.01"/>
</g>

<g id="2012" class="node type_date_2012">
<title>2012</title>
<path fill="white" stroke="none" d="M139.37,-610.5C139.37,-610.5 106.44,-610.5 106.44,-610.5 101.88,-610.5 97.31,-605.93 97.31,-601.37 97.31,-601.37 97.31,-592.23 97.31,-592.23 97.31,-587.67 101.88,-583.1 106.44,-583.1 106.44,-583.1 139.37,-583.1 139.37,-583.1 143.93,-583.1 148.5,-587.67 148.5,-592.23 148.5,-592.23 148.5,-601.37 148.5,-601.37 148.5,-605.93 143.93,-610.5 139.37,-610.5"/>
<text text-anchor="start" x="105.11" y="-592" font-family="Helvetica,sans-Serif" font-size="16.00">2012</text>
</g>

<g id="2011___2012" class="edge">
<title>2011-&gt;2012</title>
<path fill="none" stroke="lightgrey" stroke-width="2" d="M122.9,-574.96C122.9,-577.76 122.9,-580.74 122.9,-583.54"/>
</g>

<g id="2015" class="node type_date_2015">
<title>2015</title>
<path fill="white" stroke="none" d="M139.37,-673.7C139.37,-673.7 106.44,-673.7 106.44,-673.7 101.88,-673.7 97.31,-669.13 97.31,-664.57 97.31,-664.57 97.31,-655.43 97.31,-655.43 97.31,-650.87 101.88,-646.3 106.44,-646.3 106.44,-646.3 139.37,-646.3 139.37,-646.3 143.93,-646.3 148.5,-650.87 148.5,-655.43 148.5,-655.43 148.5,-664.57 148.5,-664.57 148.5,-669.13 143.93,-673.7 139.37,-673.7"/>
<text text-anchor="start" x="105.11" y="-655.2" font-family="Helvetica,sans-Serif" font-size="16.00">2015</text>
</g>

<g id="2012___2015" class="edge">
<title>2012-&gt;2015</title>
<path fill="none" stroke="lightgrey" stroke-width="2" d="M122.9,-610.48C122.9,-620.98 122.9,-635.84 122.9,-646.34"/>
</g>

<g id="2016" class="node type_date_2016">
<title>2016</title>
<path fill="white" stroke="none" d="M139.37,-708.9C139.37,-708.9 106.44,-708.9 106.44,-708.9 101.88,-708.9 97.31,-704.33 97.31,-699.77 97.31,-699.77 97.31,-690.63 97.31,-690.63 97.31,-686.07 101.88,-681.5 106.44,-681.5 106.44,-681.5 139.37,-681.5 139.37,-681.5 143.93,-681.5 148.5,-686.07 148.5,-690.63 148.5,-690.63 148.5,-699.77 148.5,-699.77 148.5,-704.33 143.93,-708.9 139.37,-708.9"/>
<text text-anchor="start" x="105.11" y="-690.4" font-family="Helvetica,sans-Serif" font-size="16.00">2016</text>
</g>

<g id="2015___2016" class="edge">
<title>2015-&gt;2016</title>
<path fill="none" stroke="lightgrey" stroke-width="2" d="M122.9,-673.36C122.9,-676.16 122.9,-679.14 122.9,-681.94"/>
</g>

<g id="2017" class="node type_date_2017">
<title>2017</title>
<path fill="white" stroke="none" d="M139.37,-744.1C139.37,-744.1 106.44,-744.1 106.44,-744.1 101.88,-744.1 97.31,-739.53 97.31,-734.97 97.31,-734.97 97.31,-725.83 97.31,-725.83 97.31,-721.27 101.88,-716.7 106.44,-716.7 106.44,-716.7 139.37,-716.7 139.37,-716.7 143.93,-716.7 148.5,-721.27 148.5,-725.83 148.5,-725.83 148.5,-734.97 148.5,-734.97 148.5,-739.53 143.93,-744.1 139.37,-744.1"/>
<text text-anchor="start" x="105.11" y="-725.6" font-family="Helvetica,sans-Serif" font-size="16.00">2017</text>
</g>

<g id="2016___2017" class="edge">
<title>2016-&gt;2017</title>
<path fill="none" stroke="lightgrey" stroke-width="2" d="M122.9,-708.56C122.9,-711.36 122.9,-714.34 122.9,-717.14"/>
</g>

<g id="2019" class="node type_date_2019">
<title>2019</title>
<path fill="white" stroke="none" d="M139.37,-779.3C139.37,-779.3 106.44,-779.3 106.44,-779.3 101.88,-779.3 97.31,-774.73 97.31,-770.17 97.31,-770.17 97.31,-761.03 97.31,-761.03 97.31,-756.47 101.88,-751.9 106.44,-751.9 106.44,-751.9 139.37,-751.9 139.37,-751.9 143.93,-751.9 148.5,-756.47 148.5,-761.03 148.5,-761.03 148.5,-770.17 148.5,-770.17 148.5,-774.73 143.93,-779.3 139.37,-779.3"/>
<text text-anchor="start" x="105.11" y="-760.8" font-family="Helvetica,sans-Serif" font-size="16.00">2019</text>
</g>

<g id="2017___2019" class="edge">
<title>2017-&gt;2019</title>
<path fill="none" stroke="lightgrey" stroke-width="2" d="M122.9,-743.76C122.9,-746.56 122.9,-749.54 122.9,-752.34"/>
</g>

<g id="2022" class="node type_date_2022">
<title>2022</title>
<path fill="white" stroke="none" d="M139.37,-842.5C139.37,-842.5 106.44,-842.5 106.44,-842.5 101.88,-842.5 97.31,-837.93 97.31,-833.37 97.31,-833.37 97.31,-824.23 97.31,-824.23 97.31,-819.67 101.88,-815.1 106.44,-815.1 106.44,-815.1 139.37,-815.1 139.37,-815.1 143.93,-815.1 148.5,-819.67 148.5,-824.23 148.5,-824.23 148.5,-833.37 148.5,-833.37 148.5,-837.93 143.93,-842.5 139.37,-842.5"/>
<text text-anchor="start" x="105.11" y="-824" font-family="Helvetica,sans-Serif" font-size="16.00">2022</text>
</g>

<g id="2019___2022" class="edge">
<title>2019-&gt;2022</title>
<path fill="none" stroke="lightgrey" stroke-width="2" d="M122.9,-779.28C122.9,-789.78 122.9,-804.64 122.9,-815.14"/>
</g>

<g id="2024" class="node type_date_2024">
<title>2024</title>
<path fill="white" stroke="none" d="M139.37,-933.7C139.37,-933.7 106.44,-933.7 106.44,-933.7 101.88,-933.7 97.31,-929.13 97.31,-924.57 97.31,-924.57 97.31,-915.43 97.31,-915.43 97.31,-910.87 101.88,-906.3 106.44,-906.3 106.44,-906.3 139.37,-906.3 139.37,-906.3 143.93,-906.3 148.5,-910.87 148.5,-915.43 148.5,-915.43 148.5,-924.57 148.5,-924.57 148.5,-929.13 143.93,-933.7 139.37,-933.7"/>
<text text-anchor="start" x="105.11" y="-915.2" font-family="Helvetica,sans-Serif" font-size="16.00">2024</text>
</g>

<g id="2022___2024" class="edge">
<title>2022-&gt;2024</title>
<path fill="none" stroke="lightgrey" stroke-width="2" d="M122.9,-842.2C122.9,-859.15 122.9,-889.37 122.9,-906.41"/>
</g>


<g id="time_future_arrow" class="edge _future">
<title>2024-&gt;time_entity_future</title>
<path fill="none" stroke="lightgrey" stroke-width="2" d="M122.9,-933.38C122.9,-934.81 122.9,-936.26 122.9,-937.7"/>
<polygon fill="lightgrey" stroke="lightgrey" stroke-width="2" points="119.4,-937.47 122.9,-947.47 126.4,-937.47 119.4,-937.47"/>
</g>
</g>
</svg>