<svg width="139pt" height="1229pt" viewBox="0.00 0.00 138.91 1229.20" xmlns="http://www.w3.org/2000/svg" xmlns:xlink="http://www.w3.org/1999/xlink">
<g id="graph0" class="graph" transform="scale(1 1) rotate(0) translate(4 1225.2)">
<title>Timelines</title>
<g id="a_graph0"><a xlink:title=" ">
<polygon fill="white" stroke="none" points="-4,4 -4,-1225.2 134.91,-1225.2 134.91,4 -4,4"/>
</a>
</g>

<g id="Istanbul_1969" class="node global_type_Boran type_date_1969">
<title>Istanbul_1969</title>
<path fill="white" stroke="none" d="M52.97,-51.6C52.97,-51.6 15.26,-51.6 15.26,-51.6 11.92,-51.6 8.59,-48.27 8.59,-44.93 8.59,-44.93 8.59,-38.27 8.59,-38.27 8.59,-34.93 11.92,-31.6 15.26,-31.6 15.26,-31.6 52.97,-31.6 52.97,-31.6 56.31,-31.6 59.64,-34.93 59.64,-38.27 59.64,-38.27 59.64,-44.93 59.64,-44.93 59.64,-48.27 56.31,-51.6 52.97,-51.6"/>
<text text-anchor="middle" x="34.12" y="-38.6" font-family="Helvetica,sans-Serif" font-size="10.00">Istanbul</text>
</g>

<g id="Gymnast_1980" class="node global_type_Boran type_date_1980">
<title>Gymnast_1980</title>
<path fill="white" stroke="none" d="M55.46,-86.8C55.46,-86.8 12.77,-86.8 12.77,-86.8 9.44,-86.8 6.11,-83.47 6.11,-80.13 6.11,-80.13 6.11,-73.47 6.11,-73.47 6.11,-70.13 9.44,-66.8 12.77,-66.8 12.77,-66.8 55.46,-66.8 55.46,-66.8 58.79,-66.8 62.13,-70.13 62.13,-73.47 62.13,-73.47 62.13,-80.13 62.13,-80.13 62.13,-83.47 58.79,-86.8 55.46,-86.8"/>
<text text-anchor="middle" x="34.12" y="-73.8" font-family="Helvetica,sans-Serif" font-size="10.00">Gymnast</text>
</g>

<g id="Istanbul_1969___Gymnast_1980" class="edge global_type_Boran">
<title>Istanbul_1969-&gt;Gymnast_1980</title>
<g id="a_Istanbul_1969___Gymnast_1980"><a xlink:title="Boran">
<path fill="none" stroke="#b3de69" stroke-width="2" d="M34.12,-51.32C34.12,-56.24 34.12,-62.36 34.12,-67.25"/>
</a>
</g>
</g>

<g id="GymCoach" class="node global_type_Boran">
<title>GymCoach</title>
<path fill="white" stroke="none" d="M57.68,-130.4C57.68,-130.4 10.55,-130.4 10.55,-130.4 5.22,-130.4 -0.12,-125.07 -0.12,-119.73 -0.12,-119.73 -0.12,-109.07 -0.12,-109.07 -0.12,-103.73 5.22,-98.4 10.55,-98.4 10.55,-98.4 57.68,-98.4 57.68,-98.4 63.01,-98.4 68.35,-103.73 68.35,-109.07 68.35,-109.07 68.35,-119.73 68.35,-119.73 68.35,-125.07 63.01,-130.4 57.68,-130.4"/>
<text text-anchor="middle" x="34.12" y="-117.4" font-family="Helvetica,sans-Serif" font-size="10.00">Gymnastics</text>
<text text-anchor="middle" x="34.12" y="-105.4" font-family="Helvetica,sans-Serif" font-size="10.00">Coach</text>
</g>

<g id="Gymnast_1980___GymCoach" class="edge global_type_Boran">
<title>Gymnast_1980-&gt;GymCoach</title>
<g id="a_Gymnast_1980___GymCoach"><a xlink:title="Boran">
<path fill="none" stroke="#b3de69" stroke-width="2" d="M34.12,-86.78C34.12,-90.33 34.12,-94.49 34.12,-98.46"/>
</a>
</g>
</g>

<g id="Climbing_1989" class="node global_type_Boran type_date_1989">
<title>Climbing_1989</title>
<path fill="white" stroke="none" d="M54.85,-162C54.85,-162 13.38,-162 13.38,-162 10.05,-162 6.71,-158.67 6.71,-155.33 6.71,-155.33 6.71,-148.67 6.71,-148.67 6.71,-145.33 10.05,-142 13.38,-142 13.38,-142 54.85,-142 54.85,-142 58.18,-142 61.52,-145.33 61.52,-148.67 61.52,-148.67 61.52,-155.33 61.52,-155.33 61.52,-158.67 58.18,-162 54.85,-162"/>
<text text-anchor="middle" x="34.12" y="-149" font-family="Helvetica,sans-Serif" font-size="10.00">Climbing</text>
</g>

<g id="GymCoach___Climbing_1989" class="edge global_type_Boran">
<title>GymCoach-&gt;Climbing_1989</title>
<g id="a_GymCoach___Climbing_1989"><a xlink:title="Boran">
<path fill="none" stroke="#b3de69" stroke-width="2" d="M34.12,-130.29C34.12,-134.41 34.12,-138.74 34.12,-142.37"/>
</a>
</g>
</g>

<g id="TUM" class="node global_type_Boran">
<title>TUM</title>
<path fill="white" stroke="none" d="M52.02,-217.6C52.02,-217.6 16.21,-217.6 16.21,-217.6 10.21,-217.6 4.21,-211.6 4.21,-205.6 4.21,-205.6 4.21,-185.6 4.21,-185.6 4.21,-179.6 10.21,-173.6 16.21,-173.6 16.21,-173.6 52.02,-173.6 52.02,-173.6 58.02,-173.6 64.02,-179.6 64.02,-185.6 64.02,-185.6 64.02,-205.6 64.02,-205.6 64.02,-211.6 58.02,-217.6 52.02,-217.6"/>
<text text-anchor="middle" x="34.12" y="-204.6" font-family="Helvetica,sans-Serif" font-size="10.00">Computer</text>
<text text-anchor="middle" x="34.12" y="-192.6" font-family="Helvetica,sans-Serif" font-size="10.00">Science</text>
<text text-anchor="middle" x="34.12" y="-180.6" font-family="Helvetica,sans-Serif" font-size="10.00">@ TUM</text>
</g>

<g id="Climbing_1989___TUM" class="edge global_type_Boran">
<title>Climbing_1989-&gt;TUM</title>
<g id="a_Climbing_1989___TUM"><a xlink:title="Boran">
<path fill="none" stroke="#b3de69" stroke-width="2" d="M34.12,-161.82C34.12,-165.35 34.12,-169.58 34.12,-173.81"/>
</a>
</g>
</g>

<g id="CAD3D" class="node global_type_Boran">
<title>CAD3D</title>
<path fill="white" stroke="none" d="M53.62,-245.6C53.62,-245.6 14.61,-245.6 14.61,-245.6 11.27,-245.6 7.94,-242.27 7.94,-238.93 7.94,-238.93 7.94,-232.27 7.94,-232.27 7.94,-228.93 11.27,-225.6 14.61,-225.6 14.61,-225.6 53.62,-225.6 53.62,-225.6 56.96,-225.6 60.29,-228.93 60.29,-232.27 60.29,-232.27 60.29,-238.93 60.29,-238.93 60.29,-242.27 56.96,-245.6 53.62,-245.6"/>
<text text-anchor="middle" x="34.12" y="-232.6" font-family="Helvetica,sans-Serif" font-size="10.00">3D CAD</text>
</g>

<g id="TUM___CAD3D" class="edge global_type_Boran">
<title>TUM-&gt;CAD3D</title>
<g id="a_TUM___CAD3D"><a xlink:title="Boran">
<path fill="none" stroke="#b3de69" stroke-width="2" d="M34.12,-217.38C34.12,-220.29 34.12,-223.14 34.12,-225.67"/>
</a>
</g>
</g>

<g id="California_1994" class="node global_type_Boran type_date_1994">
<title>California_1994</title>
<path fill="white" stroke="none" d="M50.26,-285.6C50.26,-285.6 17.97,-285.6 17.97,-285.6 12.64,-285.6 7.31,-280.27 7.31,-274.93 7.31,-274.93 7.31,-264.27 7.31,-264.27 7.31,-258.93 12.64,-253.6 17.97,-253.6 17.97,-253.6 50.26,-253.6 50.26,-253.6 55.59,-253.6 60.92,-258.93 60.92,-264.27 60.92,-264.27 60.92,-274.93 60.92,-274.93 60.92,-280.27 55.59,-285.6 50.26,-285.6"/>
<text text-anchor="middle" x="34.12" y="-272.6" font-family="Helvetica,sans-Serif" font-size="10.00">Logitech</text>
<text text-anchor="middle" x="34.12" y="-260.6" font-family="Helvetica,sans-Serif" font-size="10.00">CA USA</text>
</g>

<g id="CAD3D___California_1994" class="edge global_type_Boran">
<title>CAD3D-&gt;California_1994</title>
<g id="a_CAD3D___California_1994"><a xlink:title="Boran">
<path fill="none" stroke="#b3de69" stroke-width="2" d="M34.12,-245.34C34.12,-248.01 34.12,-251.01 34.12,-253.96"/>
</a>
</g>
</g>

<g id="MagicMotion_1995" class="node global_type_Boran type_date_1995">
<title>MagicMotion_1995</title>
<path fill="white" stroke="none" d="M53.85,-337.6C53.85,-337.6 14.38,-337.6 14.38,-337.6 8.38,-337.6 2.38,-331.6 2.38,-325.6 2.38,-325.6 2.38,-305.6 2.38,-305.6 2.38,-299.6 8.38,-293.6 14.38,-293.6 14.38,-293.6 53.85,-293.6 53.85,-293.6 59.85,-293.6 65.85,-299.6 65.85,-305.6 65.85,-305.6 65.85,-325.6 65.85,-325.6 65.85,-331.6 59.85,-337.6 53.85,-337.6"/>
<text text-anchor="middle" x="34.12" y="-324.6" font-family="Helvetica,sans-Serif" font-size="10.00">Magic</text>
<text text-anchor="middle" x="34.12" y="-312.6" font-family="Helvetica,sans-Serif" font-size="10.00">Motion</text>
<text text-anchor="middle" x="34.12" y="-300.6" font-family="Helvetica,sans-Serif" font-size="10.00">3D movies</text>
</g>

<g id="California_1994___MagicMotion_1995" class="edge global_type_Boran">
<title>California_1994-&gt;MagicMotion_1995</title>
<g id="a_California_1994___MagicMotion_1995"><a xlink:title="Boran">
<path fill="none" stroke="#b3de69" stroke-width="2" d="M34.12,-285.5C34.12,-288.19 34.12,-291.04 34.12,-293.86"/>
</a>
</g>
</g>

<g id="Cybertennis_1996" class="node global_type_Boran type_date_1996">
<title>Cybertennis_1996</title>
<path fill="white" stroke="none" d="M46.45,-377.6C46.45,-377.6 21.78,-377.6 21.78,-377.6 16.44,-377.6 11.11,-372.27 11.11,-366.93 11.11,-366.93 11.11,-356.27 11.11,-356.27 11.11,-350.93 16.44,-345.6 21.78,-345.6 21.78,-345.6 46.45,-345.6 46.45,-345.6 51.79,-345.6 57.12,-350.93 57.12,-356.27 57.12,-356.27 57.12,-366.93 57.12,-366.93 57.12,-372.27 51.79,-377.6 46.45,-377.6"/>
<text text-anchor="middle" x="34.12" y="-364.6" font-family="Helvetica,sans-Serif" font-size="10.00">Cyber-</text>
<text text-anchor="middle" x="34.12" y="-352.6" font-family="Helvetica,sans-Serif" font-size="10.00">tennis</text>
</g>

<g id="MagicMotion_1995___Cybertennis_1996" class="edge global_type_Boran">
<title>MagicMotion_1995-&gt;Cybertennis_1996</title>
<g id="a_MagicMotion_1995___Cybertennis_1996"><a xlink:title="Boran">
<path fill="none" stroke="#b3de69" stroke-width="2" d="M34.12,-337.57C34.12,-340.31 34.12,-343.08 34.12,-345.7"/>
</a>
</g>
</g>

<g id="Cancer" class="node global_type_Boran">
<title>Cancer</title>
<path fill="white" stroke="none" d="M51.69,-405.6C51.69,-405.6 16.55,-405.6 16.55,-405.6 13.21,-405.6 9.88,-402.27 9.88,-398.93 9.88,-398.93 9.88,-392.27 9.88,-392.27 9.88,-388.93 13.21,-385.6 16.55,-385.6 16.55,-385.6 51.69,-385.6 51.69,-385.6 55.02,-385.6 58.35,-388.93 58.35,-392.27 58.35,-392.27 58.35,-398.93 58.35,-398.93 58.35,-402.27 55.02,-405.6 51.69,-405.6"/>
<text text-anchor="middle" x="34.12" y="-392.6" font-family="Helvetica,sans-Serif" font-size="10.00">Cancer</text>
</g>

<g id="Cybertennis_1996___Cancer" class="edge global_type_Boran">
<title>Cybertennis_1996-&gt;Cancer</title>
<g id="a_Cybertennis_1996___Cancer"><a xlink:title="Boran">
<path fill="none" stroke="#b3de69" stroke-width="2" d="M34.12,-377.48C34.12,-380.35 34.12,-383.27 34.12,-385.87"/>
</a>
</g>
</g>

<g id="BMW_1998" class="node global_type_Boran type_date_1998">
<title>BMW_1998</title>
<path fill="white" stroke="none" d="M50.32,-445.6C50.32,-445.6 17.91,-445.6 17.91,-445.6 12.58,-445.6 7.25,-440.27 7.25,-434.93 7.25,-434.93 7.25,-424.27 7.25,-424.27 7.25,-418.93 12.58,-413.6 17.91,-413.6 17.91,-413.6 50.32,-413.6 50.32,-413.6 55.65,-413.6 60.99,-418.93 60.99,-424.27 60.99,-424.27 60.99,-434.93 60.99,-434.93 60.99,-440.27 55.65,-445.6 50.32,-445.6"/>
<text text-anchor="middle" x="34.12" y="-432.6" font-family="Helvetica,sans-Serif" font-size="10.00">SW PM</text>
<text text-anchor="middle" x="34.12" y="-420.6" font-family="Helvetica,sans-Serif" font-size="10.00">@ BMW</text>
</g>

<g id="Cancer___BMW_1998" class="edge global_type_Boran">
<title>Cancer-&gt;BMW_1998</title>
<g id="a_Cancer___BMW_1998"><a xlink:title="Boran">
<path fill="none" stroke="#b3de69" stroke-width="2" d="M34.12,-405.34C34.12,-408.01 34.12,-411.01 34.12,-413.96"/>
</a>
</g>
</g>

<g id="FoundInSpace_1999" class="node global_type_Boran type_date_1999">
<title>FoundInSpace_1999</title>
<path fill="white" stroke="none" d="M53.24,-509.6C53.24,-509.6 14.99,-509.6 14.99,-509.6 8.99,-509.6 2.99,-503.6 2.99,-497.6 2.99,-497.6 2.99,-465.6 2.99,-465.6 2.99,-459.6 8.99,-453.6 14.99,-453.6 14.99,-453.6 53.24,-453.6 53.24,-453.6 59.24,-453.6 65.24,-459.6 65.24,-465.6 65.24,-465.6 65.24,-497.6 65.24,-497.6 65.24,-503.6 59.24,-509.6 53.24,-509.6"/>
<text text-anchor="middle" x="34.12" y="-496.6" font-family="Helvetica,sans-Serif" font-size="10.00">Found</text>
<text text-anchor="middle" x="34.12" y="-484.6" font-family="Helvetica,sans-Serif" font-size="10.00">in</text>
<text text-anchor="middle" x="34.12" y="-472.6" font-family="Helvetica,sans-Serif" font-size="10.00">Space</text>
<text text-anchor="middle" x="34.12" y="-460.6" font-family="Helvetica,sans-Serif" font-size="10.00">3D Viewer</text>
</g>

<g id="BMW_1998___FoundInSpace_1999" class="edge global_type_Boran">
<title>BMW_1998-&gt;FoundInSpace_1999</title>
<g id="a_BMW_1998___FoundInSpace_1999"><a xlink:title="Boran">
<path fill="none" stroke="#b3de69" stroke-width="2" d="M34.12,-445.33C34.12,-447.98 34.12,-450.82 34.12,-453.69"/>
</a>
</g>
</g>

<g id="Vivien_2002" class="node global_type_Boran type_date_2002">
<title>Vivien_2002</title>
<path fill="white" stroke="none" d="M49.19,-541.2C49.19,-541.2 19.05,-541.2 19.05,-541.2 15.71,-541.2 12.38,-537.87 12.38,-534.53 12.38,-534.53 12.38,-527.87 12.38,-527.87 12.38,-524.53 15.71,-521.2 19.05,-521.2 19.05,-521.2 49.19,-521.2 49.19,-521.2 52.52,-521.2 55.85,-524.53 55.85,-527.87 55.85,-527.87 55.85,-534.53 55.85,-534.53 55.85,-537.87 52.52,-541.2 49.19,-541.2"/>
<text text-anchor="middle" x="34.12" y="-528.2" font-family="Helvetica,sans-Serif" font-size="10.00">Vivien</text>
</g>

<g id="FoundInSpace_1999___Vivien_2002" class="edge global_type_Boran">
<title>FoundInSpace_1999-&gt;Vivien_2002</title>
<g id="a_FoundInSpace_1999___Vivien_2002"><a xlink:title="Boran">
<path fill="none" stroke="#b3de69" stroke-width="2" d="M34.12,-509.46C34.12,-513.85 34.12,-518.09 34.12,-521.59"/>
</a>
</g>
</g>

<g id="ITIL" class="node global_type_Boran">
<title>ITIL</title>
<path fill="white" stroke="none" d="M44.18,-572.8C44.18,-572.8 24.06,-572.8 24.06,-572.8 20.72,-572.8 17.39,-569.47 17.39,-566.13 17.39,-566.13 17.39,-559.47 17.39,-559.47 17.39,-556.13 20.72,-552.8 24.06,-552.8 24.06,-552.8 44.18,-552.8 44.18,-552.8 47.51,-552.8 50.84,-556.13 50.84,-559.47 50.84,-559.47 50.84,-566.13 50.84,-566.13 50.84,-569.47 47.51,-572.8 44.18,-572.8"/>
<text text-anchor="middle" x="34.12" y="-559.8" font-family="Helvetica,sans-Serif" font-size="10.00">ITIL</text>
</g>

<g id="Vivien_2002___ITIL" class="edge global_type_Boran">
<title>Vivien_2002-&gt;ITIL</title>
<g id="a_Vivien_2002___ITIL"><a xlink:title="Boran">
<path fill="none" stroke="#b3de69" stroke-width="2" d="M34.12,-540.92C34.12,-544.74 34.12,-549.21 34.12,-553.04"/>
</a>
</g>
</g>

<g id="ITLExpert_2007" class="node global_type_Boran type_date_2007">
<title>ITLExpert_2007</title>
<path fill="white" stroke="none" d="M45.85,-612.8C45.85,-612.8 22.38,-612.8 22.38,-612.8 17.05,-612.8 11.71,-607.47 11.71,-602.13 11.71,-602.13 11.71,-591.47 11.71,-591.47 11.71,-586.13 17.05,-580.8 22.38,-580.8 22.38,-580.8 45.85,-580.8 45.85,-580.8 51.18,-580.8 56.52,-586.13 56.52,-591.47 56.52,-591.47 56.52,-602.13 56.52,-602.13 56.52,-607.47 51.18,-612.8 45.85,-612.8"/>
<text text-anchor="middle" x="34.12" y="-599.8" font-family="Helvetica,sans-Serif" font-size="10.00">ITIL</text>
<text text-anchor="middle" x="34.12" y="-587.8" font-family="Helvetica,sans-Serif" font-size="10.00">Expert</text>
</g>

<g id="ITIL___ITLExpert_2007" class="edge global_type_Boran">
<title>ITIL-&gt;ITLExpert_2007</title>
<g id="a_ITIL___ITLExpert_2007"><a xlink:title="Boran">
<path fill="none" stroke="#b3de69" stroke-width="2" d="M34.12,-572.54C34.12,-575.21 34.12,-578.21 34.12,-581.16"/>
</a>
</g>
</g>

<g id="QClimbing" class="node global_type_Boran">
<title>QClimbing</title>
<path fill="white" stroke="none" d="M50.85,-652.8C50.85,-652.8 17.38,-652.8 17.38,-652.8 12.05,-652.8 6.71,-647.47 6.71,-642.13 6.71,-642.13 6.71,-631.47 6.71,-631.47 6.71,-626.13 12.05,-620.8 17.38,-620.8 17.38,-620.8 50.85,-620.8 50.85,-620.8 56.18,-620.8 61.52,-626.13 61.52,-631.47 61.52,-631.47 61.52,-642.13 61.52,-642.13 61.52,-647.47 56.18,-652.8 50.85,-652.8"/>
<text text-anchor="middle" x="34.12" y="-639.8" font-family="Helvetica,sans-Serif" font-size="10.00">Quality</text>
<text text-anchor="middle" x="34.12" y="-627.8" font-family="Helvetica,sans-Serif" font-size="10.00">Climbing</text>
</g>

<g id="ITLExpert_2007___QClimbing" class="edge global_type_Boran">
<title>ITLExpert_2007-&gt;QClimbing</title>
<g id="a_ITLExpert_2007___QClimbing"><a xlink:title="Boran">
<path fill="none" stroke="#b3de69" stroke-width="2" d="M34.12,-612.38C34.12,-615.15 34.12,-618.04 34.12,-620.82"/>
</a>
</g>
</g>

<g id="SAP_2011" class="node global_type_Boran type_date_2011">
<title>SAP_2011</title>
<path fill="white" stroke="none" d="M50.09,-704.8C50.09,-704.8 18.15,-704.8 18.15,-704.8 12.15,-704.8 6.15,-698.8 6.15,-692.8 6.15,-692.8 6.15,-672.8 6.15,-672.8 6.15,-666.8 12.15,-660.8 18.15,-660.8 18.15,-660.8 50.09,-660.8 50.09,-660.8 56.09,-660.8 62.09,-666.8 62.09,-672.8 62.09,-672.8 62.09,-692.8 62.09,-692.8 62.09,-698.8 56.09,-704.8 50.09,-704.8"/>
<text text-anchor="middle" x="34.12" y="-691.8" font-family="Helvetica,sans-Serif" font-size="10.00">Knowl.-</text>
<text text-anchor="middle" x="34.12" y="-679.8" font-family="Helvetica,sans-Serif" font-size="10.00">Manager</text>
<text text-anchor="middle" x="34.12" y="-667.8" font-family="Helvetica,sans-Serif" font-size="10.00">@ SAP</text>
</g>

<g id="QClimbing___SAP_2011" class="edge global_type_Boran">
<title>QClimbing-&gt;SAP_2011</title>
<g id="a_QClimbing___SAP_2011"><a xlink:title="Boran">
<path fill="none" stroke="#b3de69" stroke-width="2" d="M34.12,-652.7C34.12,-655.39 34.12,-658.24 34.12,-661.06"/>
</a>
</g>
</g>

<g id="Paragliding_2012" class="node global_type_Boran type_date_2012">
<title>Paragliding_2012</title>
<path fill="white" stroke="none" d="M45.86,-744.8C45.86,-744.8 22.37,-744.8 22.37,-744.8 17.04,-744.8 11.7,-739.47 11.7,-734.13 11.7,-734.13 11.7,-723.47 11.7,-723.47 11.7,-718.13 17.04,-712.8 22.37,-712.8 22.37,-712.8 45.86,-712.8 45.86,-712.8 51.19,-712.8 56.53,-718.13 56.53,-723.47 56.53,-723.47 56.53,-734.13 56.53,-734.13 56.53,-739.47 51.19,-744.8 45.86,-744.8"/>
<text text-anchor="middle" x="34.12" y="-731.8" font-family="Helvetica,sans-Serif" font-size="10.00">Para-</text>
<text text-anchor="middle" x="34.12" y="-719.8" font-family="Helvetica,sans-Serif" font-size="10.00">gliding</text>
</g>

<g id="SAP_2011___Paragliding_2012" class="edge global_type_Boran">
<title>SAP_2011-&gt;Paragliding_2012</title>
<g id="a_SAP_2011___Paragliding_2012"><a xlink:title="Boran">
<path fill="none" stroke="#b3de69" stroke-width="2" d="M34.12,-704.77C34.12,-707.51 34.12,-710.28 34.12,-712.9"/>
</a>
</g>
</g>

<g id="Lenggries_2013" class="node global_type_Boran type_date_2013">
<title>Lenggries_2013</title>
<path fill="white" stroke="none" d="M57.37,-776.4C57.37,-776.4 10.86,-776.4 10.86,-776.4 7.53,-776.4 4.19,-773.07 4.19,-769.73 4.19,-769.73 4.19,-763.07 4.19,-763.07 4.19,-759.73 7.53,-756.4 10.86,-756.4 10.86,-756.4 57.37,-756.4 57.37,-756.4 60.7,-756.4 64.04,-759.73 64.04,-763.07 64.04,-763.07 64.04,-769.73 64.04,-769.73 64.04,-773.07 60.7,-776.4 57.37,-776.4"/>
<text text-anchor="middle" x="34.12" y="-763.4" font-family="Helvetica,sans-Serif" font-size="10.00">Lenggries</text>
</g>

<g id="Paragliding_2012___Lenggries_2013" class="edge global_type_Boran">
<title>Paragliding_2012-&gt;Lenggries_2013</title>
<g id="a_Paragliding_2012___Lenggries_2013"><a xlink:title="Boran">
<path fill="none" stroke="#b3de69" stroke-width="2" d="M34.12,-744.69C34.12,-748.81 34.12,-753.14 34.12,-756.77"/>
</a>
</g>
</g>

<g id="ClimbingCoach_2014" class="node global_type_Boran type_date_2014">
<title>ClimbingCoach_2014</title>
<path fill="white" stroke="none" d="M50.85,-820C50.85,-820 17.38,-820 17.38,-820 12.05,-820 6.71,-814.67 6.71,-809.33 6.71,-809.33 6.71,-798.67 6.71,-798.67 6.71,-793.33 12.05,-788 17.38,-788 17.38,-788 50.85,-788 50.85,-788 56.18,-788 61.52,-793.33 61.52,-798.67 61.52,-798.67 61.52,-809.33 61.52,-809.33 61.52,-814.67 56.18,-820 50.85,-820"/>
<text text-anchor="middle" x="34.12" y="-807" font-family="Helvetica,sans-Serif" font-size="10.00">Climbing</text>
<text text-anchor="middle" x="34.12" y="-795" font-family="Helvetica,sans-Serif" font-size="10.00">Coach</text>
</g>

<g id="Lenggries_2013___ClimbingCoach_2014" class="edge global_type_Boran">
<title>Lenggries_2013-&gt;ClimbingCoach_2014</title>
<g id="a_Lenggries_2013___ClimbingCoach_2014"><a xlink:title="Boran">
<path fill="none" stroke="#b3de69" stroke-width="2" d="M34.12,-776.38C34.12,-779.93 34.12,-784.09 34.12,-788.06"/>
</a>
</g>
</g>

<g id="EAM" class="node global_type_Boran">
<title>EAM</title>
<path fill="white" stroke="none" d="M46.12,-848C46.12,-848 22.11,-848 22.11,-848 18.78,-848 15.44,-844.67 15.44,-841.33 15.44,-841.33 15.44,-834.67 15.44,-834.67 15.44,-831.33 18.78,-828 22.11,-828 22.11,-828 46.12,-828 46.12,-828 49.45,-828 52.79,-831.33 52.79,-834.67 52.79,-834.67 52.79,-841.33 52.79,-841.33 52.79,-844.67 49.45,-848 46.12,-848"/>
<text text-anchor="middle" x="34.12" y="-835" font-family="Helvetica,sans-Serif" font-size="10.00">EAM</text>
</g>

<g id="ClimbingCoach_2014___EAM" class="edge global_type_Boran">
<title>ClimbingCoach_2014-&gt;EAM</title>
<g id="a_ClimbingCoach_2014___EAM"><a xlink:title="Boran">
<path fill="none" stroke="#b3de69" stroke-width="2" d="M34.12,-819.88C34.12,-822.75 34.12,-825.67 34.12,-828.27"/>
</a>
</g>
</g>

<g id="AlpsXing" class="node global_type_Boran">
<title>AlpsXing</title>
<path fill="white" stroke="none" d="M44.46,-900C44.46,-900 23.77,-900 23.77,-900 17.77,-900 11.77,-894 11.77,-888 11.77,-888 11.77,-868 11.77,-868 11.77,-862 17.77,-856 23.77,-856 23.77,-856 44.46,-856 44.46,-856 50.46,-856 56.46,-862 56.46,-868 56.46,-868 56.46,-888 56.46,-888 56.46,-894 50.46,-900 44.46,-900"/>
<text text-anchor="middle" x="34.12" y="-887" font-family="Helvetica,sans-Serif" font-size="10.00">Alps</text>
<text text-anchor="middle" x="34.12" y="-875" font-family="Helvetica,sans-Serif" font-size="10.00">Xing</text>
<text text-anchor="middle" x="34.12" y="-863" font-family="Helvetica,sans-Serif" font-size="10.00">VolBiv</text>
</g>

<g id="EAM___AlpsXing" class="edge global_type_Boran">
<title>EAM-&gt;AlpsXing</title>
<g id="a_EAM___AlpsXing"><a xlink:title="Boran">
<path fill="none" stroke="#b3de69" stroke-width="2" d="M34.12,-847.81C34.12,-850.36 34.12,-853.25 34.12,-856.19"/>
</a>
</g>
</g>

<g id="TandemPilot_2015" class="node global_type_Boran type_date_2015">
<title>TandemPilot_2015</title>
<path fill="white" stroke="none" d="M49.63,-940C49.63,-940 18.6,-940 18.6,-940 13.26,-940 7.93,-934.67 7.93,-929.33 7.93,-929.33 7.93,-918.67 7.93,-918.67 7.93,-913.33 13.26,-908 18.6,-908 18.6,-908 49.63,-908 49.63,-908 54.97,-908 60.3,-913.33 60.3,-918.67 60.3,-918.67 60.3,-929.33 60.3,-929.33 60.3,-934.67 54.97,-940 49.63,-940"/>
<text text-anchor="middle" x="34.12" y="-927" font-family="Helvetica,sans-Serif" font-size="10.00">Tandem</text>
<text text-anchor="middle" x="34.12" y="-915" font-family="Helvetica,sans-Serif" font-size="10.00">Pilot</text>
</g>

<g id="AlpsXing___TandemPilot_2015" class="edge global_type_Boran">
<title>AlpsXing-&gt;TandemPilot_2015</title>
<g id="a_AlpsXing___TandemPilot_2015"><a xlink:title="Boran">
<path fill="none" stroke="#b3de69" stroke-width="2" d="M34.12,-899.97C34.12,-902.71 34.12,-905.48 34.12,-908.1"/>
</a>
</g>
</g>

<g id="FlightInstructor_2017" class="node global_type_Boran type_date_2017">
<title>FlightInstructor_2017</title>
<path fill="white" stroke="none" d="M52.13,-980C52.13,-980 16.1,-980 16.1,-980 10.77,-980 5.44,-974.67 5.44,-969.33 5.44,-969.33 5.44,-958.67 5.44,-958.67 5.44,-953.33 10.77,-948 16.1,-948 16.1,-948 52.13,-948 52.13,-948 57.46,-948 62.8,-953.33 62.8,-958.67 62.8,-958.67 62.8,-969.33 62.8,-969.33 62.8,-974.67 57.46,-980 52.13,-980"/>
<text text-anchor="middle" x="34.12" y="-967" font-family="Helvetica,sans-Serif" font-size="10.00">Flight</text>
<text text-anchor="middle" x="34.12" y="-955" font-family="Helvetica,sans-Serif" font-size="10.00">Instructor</text>
</g>

<g id="TandemPilot_2015___FlightInstructor_2017" class="edge global_type_Boran">
<title>TandemPilot_2015-&gt;FlightInstructor_2017</title>
<g id="a_TandemPilot_2015___FlightInstructor_2017"><a xlink:title="Boran">
<path fill="none" stroke="#b3de69" stroke-width="2" d="M34.12,-939.58C34.12,-942.35 34.12,-945.24 34.12,-948.02"/>
</a>
</g>
</g>

<g id="AlpsX3" class="node global_type_Boran">
<title>AlpsX3</title>
<path fill="white" stroke="none" d="M45.73,-1032C45.73,-1032 22.5,-1032 22.5,-1032 16.5,-1032 10.5,-1026 10.5,-1020 10.5,-1020 10.5,-1000 10.5,-1000 10.5,-994 16.5,-988 22.5,-988 22.5,-988 45.73,-988 45.73,-988 51.73,-988 57.73,-994 57.73,-1000 57.73,-1000 57.73,-1020 57.73,-1020 57.73,-1026 51.73,-1032 45.73,-1032"/>
<text text-anchor="middle" x="34.12" y="-1019" font-family="Helvetica,sans-Serif" font-size="10.00">Alps</text>
<text text-anchor="middle" x="34.12" y="-1007" font-family="Helvetica,sans-Serif" font-size="10.00">Xing</text>
<text text-anchor="middle" x="34.12" y="-995" font-family="Helvetica,sans-Serif" font-size="10.00">Tridem</text>
</g>

<g id="FlightInstructor_2017___AlpsX3" class="edge global_type_Boran">
<title>FlightInstructor_2017-&gt;AlpsX3</title>
<g id="a_FlightInstructor_2017___AlpsX3"><a xlink:title="Boran">
<path fill="none" stroke="#b3de69" stroke-width="2" d="M34.12,-979.9C34.12,-982.59 34.12,-985.44 34.12,-988.26"/>
</a>
</g>
</g>

<g id="ValueMaps_2019" class="node global_type_Boran type_date_2019">
<title>ValueMaps_2019</title>
<path fill="white" stroke="none" d="M45.86,-1072C45.86,-1072 22.38,-1072 22.38,-1072 17.04,-1072 11.71,-1066.67 11.71,-1061.33 11.71,-1061.33 11.71,-1050.67 11.71,-1050.67 11.71,-1045.33 17.04,-1040 22.38,-1040 22.38,-1040 45.86,-1040 45.86,-1040 51.19,-1040 56.52,-1045.33 56.52,-1050.67 56.52,-1050.67 56.52,-1061.33 56.52,-1061.33 56.52,-1066.67 51.19,-1072 45.86,-1072"/>
<text text-anchor="middle" x="34.12" y="-1059" font-family="Helvetica,sans-Serif" font-size="10.00">Value-</text>
<text text-anchor="middle" x="34.12" y="-1047" font-family="Helvetica,sans-Serif" font-size="10.00">Maps</text>
</g>

<g id="AlpsX3___ValueMaps_2019" class="edge global_type_Boran">
<title>AlpsX3-&gt;ValueMaps_2019</title>
<g id="a_AlpsX3___ValueMaps_2019"><a xlink:title="Boran">
<path fill="none" stroke="#b3de69" stroke-width="2" d="M34.12,-1031.97C34.12,-1034.71 34.12,-1037.48 34.12,-1040.1"/>
</a>
</g>
</g>

<g id="Sweden" class="node global_type_Boran">
<title>Sweden</title>
<path fill="white" stroke="none" d="M53.59,-1100C53.59,-1100 14.64,-1100 14.64,-1100 11.31,-1100 7.98,-1096.67 7.98,-1093.33 7.98,-1093.33 7.98,-1086.67 7.98,-1086.67 7.98,-1083.33 11.31,-1080 14.64,-1080 14.64,-1080 53.59,-1080 53.59,-1080 56.92,-1080 60.25,-1083.33 60.25,-1086.67 60.25,-1086.67 60.25,-1093.33 60.25,-1093.33 60.25,-1096.67 56.92,-1100 53.59,-1100"/>
<text text-anchor="middle" x="34.12" y="-1087" font-family="Helvetica,sans-Serif" font-size="10.00">Sweden</text>
</g>

<g id="ValueMaps_2019___Sweden" class="edge global_type_Boran">
<title>ValueMaps_2019-&gt;Sweden</title>
<g id="a_ValueMaps_2019___Sweden"><a xlink:title="Boran">
<path fill="none" stroke="#b3de69" stroke-width="2" d="M34.12,-1071.88C34.12,-1074.75 34.12,-1077.67 34.12,-1080.27"/>
</a>
</g>
</g>

<g id="Sailing_2022" class="node global_type_Boran type_date_2022">
<title>Sailing_2022</title>
<path fill="white" stroke="none" d="M48.95,-1140C48.95,-1140 19.28,-1140 19.28,-1140 13.94,-1140 8.61,-1134.67 8.61,-1129.33 8.61,-1129.33 8.61,-1118.67 8.61,-1118.67 8.61,-1113.33 13.94,-1108 19.28,-1108 19.28,-1108 48.95,-1108 48.95,-1108 54.29,-1108 59.62,-1113.33 59.62,-1118.67 59.62,-1118.67 59.62,-1129.33 59.62,-1129.33 59.62,-1134.67 54.29,-1140 48.95,-1140"/>
<text text-anchor="middle" x="34.12" y="-1127" font-family="Helvetica,sans-Serif" font-size="10.00">Sailing</text>
<text text-anchor="middle" x="34.12" y="-1115" font-family="Helvetica,sans-Serif" font-size="10.00">SE↣FR</text>
</g>

<g id="Sweden___Sailing_2022" class="edge global_type_Boran">
<title>Sweden-&gt;Sailing_2022</title>
<g id="a_Sweden___Sailing_2022"><a xlink:title="Boran">
<path fill="none" stroke="#b3de69" stroke-width="2" d="M34.12,-1099.74C34.12,-1102.41 34.12,-1105.41 34.12,-1108.36"/>
</a>
</g>
</g>

<g id="Timelines" class="node global_type_Boran">
<title>Timelines</title>
<path fill="white" stroke="none" d="M56.74,-1168C56.74,-1168 11.49,-1168 11.49,-1168 8.16,-1168 4.83,-1164.67 4.83,-1161.33 4.83,-1161.33 4.83,-1154.67 4.83,-1154.67 4.83,-1151.33 8.16,-1148 11.49,-1148 11.49,-1148 56.74,-1148 56.74,-1148 60.07,-1148 63.4,-1151.33 63.4,-1154.67 63.4,-1154.67 63.4,-1161.33 63.4,-1161.33 63.4,-1164.67 60.07,-1168 56.74,-1168"/>
<text text-anchor="middle" x="34.12" y="-1155" font-family="Helvetica,sans-Serif" font-size="10.00">Timelines</text>
</g>

<g id="Sailing_2022___Timelines" class="edge global_type_Boran">
<title>Sailing_2022-&gt;Timelines</title>
<g id="a_Sailing_2022___Timelines"><a xlink:title="Boran">
<path fill="none" stroke="#b3de69" stroke-width="2" d="M34.12,-1139.88C34.12,-1142.75 34.12,-1145.67 34.12,-1148.27"/>
</a>
</g>
</g>

<g id="Morocco_2024" class="node global_type_Boran type_date_2024">
<title>Morocco_2024</title>
<path fill="white" stroke="none" d="M54.79,-1199.6C54.79,-1199.6 13.44,-1199.6 13.44,-1199.6 10.1,-1199.6 6.77,-1196.27 6.77,-1192.93 6.77,-1192.93 6.77,-1186.27 6.77,-1186.27 6.77,-1182.93 10.1,-1179.6 13.44,-1179.6 13.44,-1179.6 54.79,-1179.6 54.79,-1179.6 58.13,-1179.6 61.46,-1182.93 61.46,-1186.27 61.46,-1186.27 61.46,-1192.93 61.46,-1192.93 61.46,-1196.27 58.13,-1199.6 54.79,-1199.6"/>
<text text-anchor="middle" x="34.12" y="-1186.6" font-family="Helvetica,sans-Serif" font-size="10.00">Morocco</text>
</g>

<g id="Timelines___Morocco_2024" class="edge global_type_Boran">
<title>Timelines-&gt;Morocco_2024</title>
<g id="a_Timelines___Morocco_2024"><a xlink:title="Boran">
<path fill="none" stroke="#b3de69" stroke-width="2" d="M34.12,-1167.72C34.12,-1171.54 34.12,-1176.01 34.12,-1179.84"/>
</a>
</g>
</g>


<g id="Morocco_2024___Boran_future" class="edge global_type_Boran _future">
<title>Morocco_2024-&gt;Boran_future</title>
<g id="a_Morocco_2024___Boran_future"><a xlink:title="Boran">
<path fill="none" stroke="#b3de69" stroke-width="2" d="M34.12,-1199.46C34.12,-1199.62 34.12,-1199.78 34.12,-1199.95"/>
<polygon fill="#b3de69" stroke="#b3de69" stroke-width="2" points="30.62,-1198.1 34.12,-1208.1 37.62,-1198.1 30.62,-1198.1"/>
</a>
</g>
</g>

<g id="Boran" class="node global_type_Boran">
<title>Boran</title>
<path fill="white" stroke="#b3de69" d="M48.63,-20C48.63,-20 19.6,-20 19.6,-20 16.26,-20 12.93,-16.67 12.93,-13.33 12.93,-13.33 12.93,-6.67 12.93,-6.67 12.93,-3.33 16.26,0 19.6,0 19.6,0 48.63,0 48.63,0 51.97,0 55.3,-3.33 55.3,-6.67 55.3,-6.67 55.3,-13.33 55.3,-13.33 55.3,-16.67 51.97,-20 48.63,-20"/>
<text text-anchor="middle" x="34.12" y="-7" font-family="Helvetica,sans-Serif" font-size="10.00">Boran</text>
</g>

<g id="Boran___Istanbul_1969" class="edge global_type_Boran">
<title>Boran-&gt;Istanbul_1969</title>
<g id="a_Boran___Istanbul_1969"><a xlink:title="Boran">
<path fill="none" stroke="#b3de69" d="M34.12,-30.07C34.12,-30.66 34.12,-31.24 34.12,-31.8"/>
<polygon fill="#b3de69" stroke="#b3de69" points="34.12,-30.37 38.62,-20.37 34.12,-25.37 34.12,-20.37 34.12,-20.37 34.12,-20.37 34.12,-25.37 29.62,-20.37 34.12,-30.37 34.12,-30.37"/>
</a>
</g>
</g>

<g id="time_entity" class="node">
<title>time_entity</title>
<path fill="none" stroke="lightgrey" d="M117.67,-20C117.67,-20 92.56,-20 92.56,-20 89.23,-20 85.89,-16.67 85.89,-13.33 85.89,-13.33 85.89,-6.67 85.89,-6.67 85.89,-3.33 89.23,0 92.56,0 92.56,0 117.67,0 117.67,0 121,0 124.34,-3.33 124.34,-6.67 124.34,-6.67 124.34,-13.33 124.34,-13.33 124.34,-16.67 121,-20 117.67,-20"/>
<text text-anchor="middle" x="105.12" y="-7" font-family="Helvetica,sans-Serif" font-size="10.00" fill="lightgrey">Time</text>
</g>

<g id="1969" class="node type_date_1969">
<title>1969</title>
<path fill="white" stroke="none" d="M121.58,-55.3C121.58,-55.3 88.65,-55.3 88.65,-55.3 84.09,-55.3 79.52,-50.73 79.52,-46.17 79.52,-46.17 79.52,-37.03 79.52,-37.03 79.52,-32.47 84.09,-27.9 88.65,-27.9 88.65,-27.9 121.58,-27.9 121.58,-27.9 126.14,-27.9 130.71,-32.47 130.71,-37.03 130.71,-37.03 130.71,-46.17 130.71,-46.17 130.71,-50.73 126.14,-55.3 121.58,-55.3"/>
<text text-anchor="start" x="87.32" y="-36.8" font-family="Helvetica,sans-Serif" font-size="16.00">1969</text>
</g>

<g id="time_entity___1969" class="edge">
<title>time_entity-&gt;1969</title>
<path fill="none" stroke="lightgrey" stroke-width="2" d="M105.12,-20.37C105.12,-22.8 105.12,-25.47 105.12,-28.05"/>
</g>

<g id="1980" class="node type_date_1980">
<title>1980</title>
<path fill="white" stroke="none" d="M121.58,-90.5C121.58,-90.5 88.65,-90.5 88.65,-90.5 84.09,-90.5 79.52,-85.93 79.52,-81.37 79.52,-81.37 79.52,-72.23 79.52,-72.23 79.52,-67.67 84.09,-63.1 88.65,-63.1 88.65,-63.1 121.58,-63.1 121.58,-63.1 126.14,-63.1 130.71,-67.67 130.71,-72.23 130.71,-72.23 130.71,-81.37 130.71,-81.37 130.71,-85.93 126.14,-90.5 121.58,-90.5"/>
<text text-anchor="start" x="87.32" y="-72" font-family="Helvetica,sans-Serif" font-size="16.00">1980</text>
</g>

<g id="1969___1980" class="edge">
<title>1969-&gt;1980</title>
<path fill="none" stroke="lightgrey" stroke-width="2" d="M105.12,-54.96C105.12,-57.76 105.12,-60.74 105.12,-63.54"/>
</g>

<g id="1989" class="node type_date_1989">
<title>1989</title>
<path fill="white" stroke="none" d="M121.58,-165.7C121.58,-165.7 88.65,-165.7 88.65,-165.7 84.09,-165.7 79.52,-161.13 79.52,-156.57 79.52,-156.57 79.52,-147.43 79.52,-147.43 79.52,-142.87 84.09,-138.3 88.65,-138.3 88.65,-138.3 121.58,-138.3 121.58,-138.3 126.14,-138.3 130.71,-142.87 130.71,-147.43 130.71,-147.43 130.71,-156.57 130.71,-156.57 130.71,-161.13 126.14,-165.7 121.58,-165.7"/>
<text text-anchor="start" x="87.32" y="-147.2" font-family="Helvetica,sans-Serif" font-size="16.00">1989</text>
</g>

<g id="1980___1989" class="edge">
<title>1980-&gt;1989</title>
<path fill="none" stroke="lightgrey" stroke-width="2" d="M105.12,-90.22C105.12,-103.76 105.12,-125.3 105.12,-138.77"/>
</g>

<g id="1994" class="node type_date_1994">
<title>1994</title>
<path fill="white" stroke="none" d="M121.58,-283.3C121.58,-283.3 88.65,-283.3 88.65,-283.3 84.09,-283.3 79.52,-278.73 79.52,-274.17 79.52,-274.17 79.52,-265.03 79.52,-265.03 79.52,-260.47 84.09,-255.9 88.65,-255.9 88.65,-255.9 121.58,-255.9 121.58,-255.9 126.14,-255.9 130.71,-260.47 130.71,-265.03 130.71,-265.03 130.71,-274.17 130.71,-274.17 130.71,-278.73 126.14,-283.3 121.58,-283.3"/>
<text text-anchor="start" x="87.32" y="-264.8" font-family="Helvetica,sans-Serif" font-size="16.00">1994</text>
</g>

<g id="1989___1994" class="edge">
<title>1989-&gt;1994</title>
<path fill="none" stroke="lightgrey" stroke-width="2" d="M105.12,-165.37C105.12,-187.5 105.12,-233.65 105.12,-255.97"/>
</g>

<g id="1995" class="node type_date_1995">
<title>1995</title>
<path fill="white" stroke="none" d="M121.58,-329.3C121.58,-329.3 88.65,-329.3 88.65,-329.3 84.09,-329.3 79.52,-324.73 79.52,-320.17 79.52,-320.17 79.52,-311.03 79.52,-311.03 79.52,-306.47 84.09,-301.9 88.65,-301.9 88.65,-301.9 121.58,-301.9 121.58,-301.9 126.14,-301.9 130.71,-306.47 130.71,-311.03 130.71,-311.03 130.71,-320.17 130.71,-320.17 130.71,-324.73 126.14,-329.3 121.58,-329.3"/>
<text text-anchor="start" x="87.32" y="-310.8" font-family="Helvetica,sans-Serif" font-size="16.00">1995</text>
</g>

<g id="1994___1995" class="edge">
<title>1994-&gt;1995</title>
<path fill="none" stroke="lightgrey" stroke-width="2" d="M105.12,-283.09C105.12,-288.99 105.12,-296.01 105.12,-301.93"/>
</g>

<g id="1996" class="node type_date_1996">
<title>1996</title>
<path fill="white" stroke="none" d="M121.58,-375.3C121.58,-375.3 88.65,-375.3 88.65,-375.3 84.09,-375.3 79.52,-370.73 79.52,-366.17 79.52,-366.17 79.52,-357.03 79.52,-357.03 79.52,-352.47 84.09,-347.9 88.65,-347.9 88.65,-347.9 121.58,-347.9 121.58,-347.9 126.14,-347.9 130.71,-352.47 130.71,-357.03 130.71,-357.03 130.71,-366.17 130.71,-366.17 130.71,-370.73 126.14,-375.3 121.58,-375.3"/>
<text text-anchor="start" x="87.32" y="-356.8" font-family="Helvetica,sans-Serif" font-size="16.00">1996</text>
</g>

<g id="1995___1996" class="edge">
<title>1995-&gt;1996</title>
<path fill="none" stroke="lightgrey" stroke-width="2" d="M105.12,-329.09C105.12,-334.99 105.12,-342.01 105.12,-347.93"/>
</g>

<g id="1998" class="node type_date_1998">
<title>1998</title>
<path fill="white" stroke="none" d="M121.58,-443.3C121.58,-443.3 88.65,-443.3 88.65,-443.3 84.09,-443.3 79.52,-438.73 79.52,-434.17 79.52,-434.17 79.52,-425.03 79.52,-425.03 79.52,-420.47 84.09,-415.9 88.65,-415.9 88.65,-415.9 121.58,-415.9 121.58,-415.9 126.14,-415.9 130.71,-420.47 130.71,-425.03 130.71,-425.03 130.71,-434.17 130.71,-434.17 130.71,-438.73 126.14,-443.3 121.58,-443.3"/>
<text text-anchor="start" x="87.32" y="-424.8" font-family="Helvetica,sans-Serif" font-size="16.00">1998</text>
</g>

<g id="1996___1998" class="edge">
<title>1996-&gt;1998</title>
<path fill="none" stroke="lightgrey" stroke-width="2" d="M105.12,-375.01C105.12,-386.81 105.12,-404.46 105.12,-416.24"/>
</g>

<g id="1999" class="node type_date_1999">
<title>1999</title>
<path fill="white" stroke="none" d="M121.58,-495.3C121.58,-495.3 88.65,-495.3 88.65,-495.3 84.09,-495.3 79.52,-490.73 79.52,-486.17 79.52,-486.17 79.52,-477.03 79.52,-477.03 79.52,-472.47 84.09,-467.9 88.65,-467.9 88.65,-467.9 121.58,-467.9 121.58,-467.9 126.14,-467.9 130.71,-472.47 130.71,-477.03 130.71,-477.03 130.71,-486.17 130.71,-486.17 130.71,-490.73 126.14,-495.3 121.58,-495.3"/>
<text text-anchor="start" x="87.32" y="-476.8" font-family="Helvetica,sans-Serif" font-size="16.00">1999</text>
</g>

<g id="1998___1999" class="edge">
<title>1998-&gt;1999</title>
<path fill="none" stroke="lightgrey" stroke-width="2" d="M105.12,-443.22C105.12,-450.85 105.12,-460.55 105.12,-468.16"/>
</g>

<g id="2002" class="node type_date_2002">
<title>2002</title>
<path fill="white" stroke="none" d="M121.58,-544.9C121.58,-544.9 88.65,-544.9 88.65,-544.9 84.09,-544.9 79.52,-540.33 79.52,-535.77 79.52,-535.77 79.52,-526.63 79.52,-526.63 79.52,-522.07 84.09,-517.5 88.65,-517.5 88.65,-517.5 121.58,-517.5 121.58,-517.5 126.14,-517.5 130.71,-522.07 130.71,-526.63 130.71,-526.63 130.71,-535.77 130.71,-535.77 130.71,-540.33 126.14,-544.9 121.58,-544.9"/>
<text text-anchor="start" x="87.32" y="-526.4" font-family="Helvetica,sans-Serif" font-size="16.00">2002</text>
</g>

<g id="1999___2002" class="edge">
<title>1999-&gt;2002</title>
<path fill="none" stroke="lightgrey" stroke-width="2" d="M105.12,-495.11C105.12,-502.05 105.12,-510.66 105.12,-517.61"/>
</g>

<g id="2007" class="node type_date_2007">
<title>2007</title>
<path fill="white" stroke="none" d="M121.58,-610.5C121.58,-610.5 88.65,-610.5 88.65,-610.5 84.09,-610.5 79.52,-605.93 79.52,-601.37 79.52,-601.37 79.52,-592.23 79.52,-592.23 79.52,-587.67 84.09,-583.1 88.65,-583.1 88.65,-583.1 121.58,-583.1 121.58,-583.1 126.14,-583.1 130.71,-587.67 130.71,-592.23 130.71,-592.23 130.71,-601.37 130.71,-601.37 130.71,-605.93 126.14,-610.5 121.58,-610.5"/>
<text text-anchor="start" x="87.32" y="-592" font-family="Helvetica,sans-Serif" font-size="16.00">2007</text>
</g>

<g id="2002___2007" class="edge">
<title>2002-&gt;2007</title>
<path fill="none" stroke="lightgrey" stroke-width="2" d="M105.12,-544.77C105.12,-555.92 105.12,-572.12 105.12,-583.26"/>
</g>

<g id="2011" class="node type_date_2011">
<title>2011</title>
<path fill="white" stroke="none" d="M121.58,-696.5C121.58,-696.5 88.65,-696.5 88.65,-696.5 84.09,-696.5 79.52,-691.93 79.52,-687.37 79.52,-687.37 79.52,-678.23 79.52,-678.23 79.52,-673.67 84.09,-669.1 88.65,-669.1 88.65,-669.1 121.58,-669.1 121.58,-669.1 126.14,-669.1 130.71,-673.67 130.71,-678.23 130.71,-678.23 130.71,-687.37 130.71,-687.37 130.71,-691.93 126.14,-696.5 121.58,-696.5"/>
<text text-anchor="start" x="87.32" y="-678" font-family="Helvetica,sans-Serif" font-size="16.00">2011</text>
</g>

<g id="2007___2011" class="edge">
<title>2007-&gt;2011</title>
<path fill="none" stroke="lightgrey" stroke-width="2" d="M105.12,-610.19C105.12,-626.08 105.12,-653.45 105.12,-669.35"/>
</g>

<g id="2012" class="node type_date_2012">
<title>2012</title>
<path fill="white" stroke="none" d="M121.58,-742.5C121.58,-742.5 88.65,-742.5 88.65,-742.5 84.09,-742.5 79.52,-737.93 79.52,-733.37 79.52,-733.37 79.52,-724.23 79.52,-724.23 79.52,-719.67 84.09,-715.1 88.65,-715.1 88.65,-715.1 121.58,-715.1 121.58,-715.1 126.14,-715.1 130.71,-719.67 130.71,-724.23 130.71,-724.23 130.71,-733.37 130.71,-733.37 130.71,-737.93 126.14,-742.5 121.58,-742.5"/>
<text text-anchor="start" x="87.32" y="-724" font-family="Helvetica,sans-Serif" font-size="16.00">2012</text>
</g>

<g id="2011___2012" class="edge">
<title>2011-&gt;2012</title>
<path fill="none" stroke="lightgrey" stroke-width="2" d="M105.12,-696.29C105.12,-702.19 105.12,-709.21 105.12,-715.13"/>
</g>

<g id="2013" class="node type_date_2013">
<title>2013</title>
<path fill="white" stroke="none" d="M121.58,-780.1C121.58,-780.1 88.65,-780.1 88.65,-780.1 84.09,-780.1 79.52,-775.53 79.52,-770.97 79.52,-770.97 79.52,-761.83 79.52,-761.83 79.52,-757.27 84.09,-752.7 88.65,-752.7 88.65,-752.7 121.58,-752.7 121.58,-752.7 126.14,-752.7 130.71,-757.27 130.71,-761.83 130.71,-761.83 130.71,-770.97 130.71,-770.97 130.71,-775.53 126.14,-780.1 121.58,-780.1"/>
<text text-anchor="start" x="87.32" y="-761.6" font-family="Helvetica,sans-Serif" font-size="16.00">2013</text>
</g>

<g id="2012___2013" class="edge">
<title>2012-&gt;2013</title>
<path fill="none" stroke="lightgrey" stroke-width="2" d="M105.12,-742.25C105.12,-745.78 105.12,-749.62 105.12,-753.14"/>
</g>

<g id="2014" class="node type_date_2014">
<title>2014</title>
<path fill="white" stroke="none" d="M121.58,-817.7C121.58,-817.7 88.65,-817.7 88.65,-817.7 84.09,-817.7 79.52,-813.13 79.52,-808.57 79.52,-808.57 79.52,-799.43 79.52,-799.43 79.52,-794.87 84.09,-790.3 88.65,-790.3 88.65,-790.3 121.58,-790.3 121.58,-790.3 126.14,-790.3 130.71,-794.87 130.71,-799.43 130.71,-799.43 130.71,-808.57 130.71,-808.57 130.71,-813.13 126.14,-817.7 121.58,-817.7"/>
<text text-anchor="start" x="87.32" y="-799.2" font-family="Helvetica,sans-Serif" font-size="16.00">2014</text>
</g>

<g id="2013___2014" class="edge">
<title>2013-&gt;2014</title>
<path fill="none" stroke="lightgrey" stroke-width="2" d="M105.12,-779.85C105.12,-783.38 105.12,-787.22 105.12,-790.74"/>
</g>

<g id="2015" class="node type_date_2015">
<title>2015</title>
<path fill="white" stroke="none" d="M121.58,-937.7C121.58,-937.7 88.65,-937.7 88.65,-937.7 84.09,-937.7 79.52,-933.13 79.52,-928.57 79.52,-928.57 79.52,-919.43 79.52,-919.43 79.52,-914.87 84.09,-910.3 88.65,-910.3 88.65,-910.3 121.58,-910.3 121.58,-910.3 126.14,-910.3 130.71,-914.87 130.71,-919.43 130.71,-919.43 130.71,-928.57 130.71,-928.57 130.71,-933.13 126.14,-937.7 121.58,-937.7"/>
<text text-anchor="start" x="87.32" y="-919.2" font-family="Helvetica,sans-Serif" font-size="16.00">2015</text>
</g>

<g id="2014___2015" class="edge">
<title>2014-&gt;2015</title>
<path fill="none" stroke="lightgrey" stroke-width="2" d="M105.12,-817.63C105.12,-840.34 105.12,-887.82 105.12,-910.46"/>
</g>

<g id="2017" class="node type_date_2017">
<title>2017</title>
<path fill="white" stroke="none" d="M121.58,-977.7C121.58,-977.7 88.65,-977.7 88.65,-977.7 84.09,-977.7 79.52,-973.13 79.52,-968.57 79.52,-968.57 79.52,-959.43 79.52,-959.43 79.52,-954.87 84.09,-950.3 88.65,-950.3 88.65,-950.3 121.58,-950.3 121.58,-950.3 126.14,-950.3 130.71,-954.87 130.71,-959.43 130.71,-959.43 130.71,-968.57 130.71,-968.57 130.71,-973.13 126.14,-977.7 121.58,-977.7"/>
<text text-anchor="start" x="87.32" y="-959.2" font-family="Helvetica,sans-Serif" font-size="16.00">2017</text>
</g>

<g id="2015___2017" class="edge">
<title>2015-&gt;2017</title>
<path fill="none" stroke="lightgrey" stroke-width="2" d="M105.12,-937.44C105.12,-941.6 105.12,-946.23 105.12,-950.4"/>
</g>

<g id="2019" class="node type_date_2019">
<title>2019</title>
<path fill="white" stroke="none" d="M121.58,-1069.7C121.58,-1069.7 88.65,-1069.7 88.65,-1069.7 84.09,-1069.7 79.52,-1065.13 79.52,-1060.57 79.52,-1060.57 79.52,-1051.43 79.52,-1051.43 79.52,-1046.87 84.09,-1042.3 88.65,-1042.3 88.65,-1042.3 121.58,-1042.3 121.58,-1042.3 126.14,-1042.3 130.71,-1046.87 130.71,-1051.43 130.71,-1051.43 130.71,-1060.57 130.71,-1060.57 130.71,-1065.13 126.14,-1069.7 121.58,-1069.7"/>
<text text-anchor="start" x="87.32" y="-1051.2" font-family="Helvetica,sans-Serif" font-size="16.00">2019</text>
</g>

<g id="2017___2019" class="edge">
<title>2017-&gt;2019</title>
<path fill="none" stroke="lightgrey" stroke-width="2" d="M105.12,-977.51C105.12,-994.61 105.12,-1025.11 105.12,-1042.3"/>
</g>

<g id="2022" class="node type_date_2022">
<title>2022</title>
<path fill="white" stroke="none" d="M121.58,-1137.7C121.58,-1137.7 88.65,-1137.7 88.65,-1137.7 84.09,-1137.7 79.52,-1133.13 79.52,-1128.57 79.52,-1128.57 79.52,-1119.43 79.52,-1119.43 79.52,-1114.87 84.09,-1110.3 88.65,-1110.3 88.65,-1110.3 121.58,-1110.3 121.58,-1110.3 126.14,-1110.3 130.71,-1114.87 130.71,-1119.43 130.71,-1119.43 130.71,-1128.57 130.71,-1128.57 130.71,-1133.13 126.14,-1137.7 121.58,-1137.7"/>
<text text-anchor="start" x="87.32" y="-1119.2" font-family="Helvetica,sans-Serif" font-size="16.00">2022</text>
</g>

<g id="2019___2022" class="edge">
<title>2019-&gt;2022</title>
<path fill="none" stroke="lightgrey" stroke-width="2" d="M105.12,-1069.41C105.12,-1081.21 105.12,-1098.86 105.12,-1110.64"/>
</g>

<g id="2024" class="node type_date_2024">
<title>2024</title>
<path fill="white" stroke="none" d="M121.58,-1203.3C121.58,-1203.3 88.65,-1203.3 88.65,-1203.3 84.09,-1203.3 79.52,-1198.73 79.52,-1194.17 79.52,-1194.17 79.52,-1185.03 79.52,-1185.03 79.52,-1180.47 84.09,-1175.9 88.65,-1175.9 88.65,-1175.9 121.58,-1175.9 121.58,-1175.9 126.14,-1175.9 130.71,-1180.47 130.71,-1185.03 130.71,-1185.03 130.71,-1194.17 130.71,-1194.17 130.71,-1198.73 126.14,-1203.3 121.58,-1203.3"/>
<text text-anchor="start" x="87.32" y="-1184.8" font-family="Helvetica,sans-Serif" font-size="16.00">2024</text>
</g>

<g id="2022___2024" class="edge">
<title>2022-&gt;2024</title>
<path fill="none" stroke="lightgrey" stroke-width="2" d="M105.12,-1137.57C105.12,-1148.72 105.12,-1164.92 105.12,-1176.06"/>
</g>


<g id="time_future_arrow" class="edge _future">
<title>2024-&gt;time_entity_future</title>
<path fill="none" stroke="lightgrey" stroke-width="2" d="M105.12,-1202.98C105.12,-1204.41 105.12,-1205.86 105.12,-1207.3"/>
<polygon fill="lightgrey" stroke="lightgrey" stroke-width="2" points="101.62,-1207.07 105.12,-1217.07 108.62,-1207.07 101.62,-1207.07"/>
</g>
</g>
</svg>